<svg xmlns="http://www.w3.org/2000/svg" xmlns:xlink="http://www.w3.org/1999/xlink" width="863" zoomAndPan="magnify" viewBox="0 0 647.25 292.499991" height="390" preserveAspectRatio="xMidYMid meet" version="1.0"><defs><g/><clipPath id="d64a88fb52"><path d="M 0.179688 149 L 111 149 L 111 251.109375 L 0.179688 251.109375 Z M 0.179688 149 " clip-rule="nonzero"/></clipPath><clipPath id="4c4b240a19"><path d="M 83 141 L 184.363281 141 L 184.363281 251.109375 L 83 251.109375 Z M 83 141 " clip-rule="nonzero"/></clipPath><clipPath id="5bac2d7957"><path d="M 74 65.425781 L 184.363281 65.425781 L 184.363281 167 L 74 167 Z M 74 65.425781 " clip-rule="nonzero"/></clipPath><clipPath id="432c22c8e1"><path d="M 0.179688 65.425781 L 104 65.425781 L 104 175 L 0.179688 175 Z M 0.179688 65.425781 " clip-rule="nonzero"/></clipPath></defs><g clip-path="url(#d64a88fb52)"><path fill="#ff004b" d="M 108.136719 208.914062 C 99.679688 223.765625 71.382812 243.964844 68.046875 246.222656 C 64.710938 248.480469 61.253906 249.640625 57.402344 250.214844 C 53.550781 250.789062 10.800781 252.015625 6.664062 249.8125 C 6.664062 249.8125 3.113281 247.871094 1.90625 244.253906 C 0.699219 240.640625 -1.511719 200.003906 2.375 191.292969 C 6.261719 182.585938 38.082031 153.832031 42.105469 151.648438 C 46.125 149.464844 54.78125 148.570312 60.554688 154.066406 C 65.773438 159.039062 66.652344 166.855469 65.445312 172.746094 C 64.242188 178.640625 39.515625 201.152344 39.046875 202.425781 C 38.578125 203.699219 36.769531 215.441406 36.769531 215.441406 C 36.769531 215.441406 50.214844 213.4375 53.550781 211.800781 C 57.019531 210.09375 77.914062 187.878906 83.34375 185.601562 C 88.773438 183.328125 117.804688 179.746094 108.136719 208.914062 Z M 108.136719 208.914062 " fill-opacity="1" fill-rule="evenodd"/></g><g clip-path="url(#4c4b240a19)"><path fill="#b30082" d="M 142.125 143.234375 C 156.992188 151.683594 177.214844 179.949219 179.472656 183.28125 C 181.734375 186.609375 182.894531 190.066406 183.46875 193.910156 C 184.042969 197.757812 185.269531 240.464844 183.066406 244.59375 C 183.066406 244.59375 181.125 248.144531 177.503906 249.347656 C 173.882812 250.554688 133.203125 252.765625 124.484375 248.878906 C 115.765625 244.996094 86.984375 213.210938 84.796875 209.191406 C 82.613281 205.175781 81.714844 196.53125 87.21875 190.765625 C 92.195312 185.550781 100.019531 184.671875 105.917969 185.875 C 111.816406 187.082031 134.355469 211.78125 135.628906 212.246094 C 136.902344 212.714844 148.65625 214.523438 148.65625 214.523438 C 148.65625 214.523438 146.65625 201.089844 145.011719 197.761719 C 143.304688 194.292969 121.066406 173.421875 118.789062 168 C 116.507812 162.578125 112.925781 133.574219 142.125 143.234375 Z M 142.125 143.234375 " fill-opacity="1" fill-rule="evenodd"/></g><g clip-path="url(#5bac2d7957)"><path fill="#ffa500" d="M 76.371094 107.589844 C 84.832031 92.738281 113.128906 72.539062 116.460938 70.28125 C 119.796875 68.023438 123.253906 66.863281 127.105469 66.289062 C 130.957031 65.714844 173.707031 64.488281 177.84375 66.691406 C 177.84375 66.691406 181.398438 68.632812 182.601562 72.25 C 183.808594 75.863281 186.023438 116.5 182.132812 125.210938 C 178.246094 133.917969 146.425781 162.671875 142.402344 164.855469 C 138.382812 167.039062 129.726562 167.933594 123.953125 162.4375 C 118.738281 157.464844 117.855469 149.648438 119.0625 143.757812 C 120.269531 137.863281 144.992188 115.351562 145.460938 114.078125 C 145.929688 112.804688 147.742188 101.0625 147.742188 101.0625 C 147.742188 101.0625 134.292969 103.066406 130.957031 104.703125 C 127.488281 106.410156 106.59375 128.625 101.164062 130.902344 C 95.734375 133.175781 66.703125 136.757812 76.371094 107.589844 Z M 76.371094 107.589844 " fill-opacity="1" fill-rule="evenodd"/></g><g clip-path="url(#432c22c8e1)"><path fill="#7dcfba" d="M 48.1875 173.132812 C 32.816406 165.636719 10.851562 138.699219 8.382812 135.515625 C 5.917969 132.335938 4.542969 128.960938 3.726562 125.15625 C 2.910156 121.351562 -1.007812 78.808594 0.929688 74.546875 C 0.929688 74.546875 2.648438 70.882812 6.183594 69.453125 C 9.71875 68.023438 50.179688 63.257812 59.125 66.585938 C 68.074219 69.910156 98.804688 99.824219 101.238281 103.695312 C 103.671875 107.566406 105.113281 116.140625 99.984375 122.242188 C 95.347656 127.753906 87.59375 129.128906 81.628906 128.296875 C 75.667969 127.464844 51.617188 104.234375 50.316406 103.847656 C 49.015625 103.457031 37.167969 102.394531 37.167969 102.394531 C 37.167969 102.394531 40.015625 115.675781 41.863281 118.894531 C 43.789062 122.246094 67.296875 141.675781 69.914062 146.945312 C 72.53125 152.214844 77.933594 180.933594 48.1875 173.132812 Z M 48.1875 173.132812 " fill-opacity="1" fill-rule="evenodd"/></g><path fill="#ff004b" d="M 39.046875 202.425781 C 38.578125 203.695312 -1.511719 200.003906 2.375 191.292969 C 6.261719 182.585938 38.082031 153.832031 42.105469 151.648438 C 46.125 149.464844 54.78125 148.570312 60.554688 154.066406 C 65.773438 159.039062 66.652344 166.855469 65.449219 172.746094 C 64.242188 178.640625 39.515625 201.152344 39.046875 202.425781 Z M 39.046875 202.425781 " fill-opacity="1" fill-rule="evenodd"/><g fill="#03306b" fill-opacity="1"><g transform="translate(200.354878, 135.914088)"><g><path d="M 30.984375 -55.53125 C 36.441406 -55.53125 40.984375 -54.664062 44.609375 -52.9375 C 48.234375 -51.21875 50.046875 -49.007812 50.046875 -46.3125 C 50.046875 -45.132812 49.664062 -44.078125 48.90625 -43.140625 C 48.144531 -42.210938 47.175781 -41.75 46 -41.75 C 45.101562 -41.75 44.394531 -41.882812 43.875 -42.15625 C 43.351562 -42.4375 42.644531 -42.890625 41.75 -43.515625 C 41.34375 -43.929688 40.6875 -44.414062 39.78125 -44.96875 C 38.957031 -45.382812 37.785156 -45.726562 36.265625 -46 C 34.742188 -46.28125 33.363281 -46.421875 32.125 -46.421875 C 28.53125 -46.421875 25.347656 -45.585938 22.578125 -43.921875 C 19.816406 -42.265625 17.675781 -39.96875 16.15625 -37.03125 C 14.644531 -34.101562 13.890625 -30.84375 13.890625 -27.25 C 13.890625 -23.59375 14.628906 -20.3125 16.109375 -17.40625 C 17.597656 -14.507812 19.6875 -12.226562 22.375 -10.5625 C 25.070312 -8.90625 28.144531 -8.078125 31.59375 -8.078125 C 35.1875 -8.078125 38.085938 -8.628906 40.296875 -9.734375 C 40.785156 -10.015625 41.441406 -10.46875 42.265625 -11.09375 C 42.960938 -11.644531 43.566406 -12.054688 44.078125 -12.328125 C 44.597656 -12.609375 45.238281 -12.75 46 -12.75 C 47.382812 -12.75 48.472656 -12.316406 49.265625 -11.453125 C 50.054688 -10.585938 50.453125 -9.460938 50.453125 -8.078125 C 50.453125 -6.628906 49.535156 -5.195312 47.703125 -3.78125 C 45.878906 -2.363281 43.429688 -1.207031 40.359375 -0.3125 C 37.285156 0.582031 33.988281 1.03125 30.46875 1.03125 C 25.21875 1.03125 20.585938 -0.191406 16.578125 -2.640625 C 12.566406 -5.085938 9.472656 -8.46875 7.296875 -12.78125 C 5.128906 -17.101562 4.046875 -21.925781 4.046875 -27.25 C 4.046875 -32.570312 5.179688 -37.390625 7.453125 -41.703125 C 9.734375 -46.015625 12.910156 -49.394531 16.984375 -51.84375 C 21.066406 -54.300781 25.734375 -55.53125 30.984375 -55.53125 Z M 30.984375 -55.53125 "/></g></g></g><g fill="#03306b" fill-opacity="1"><g transform="translate(253.094548, 135.914088)"><g><path d="M 58.75 -27.140625 C 58.75 -21.753906 57.539062 -16.921875 55.125 -12.640625 C 52.707031 -8.359375 49.40625 -5.007812 45.21875 -2.59375 C 41.039062 -0.175781 36.429688 1.03125 31.390625 1.03125 C 26.347656 1.03125 21.738281 -0.175781 17.5625 -2.59375 C 13.382812 -5.007812 10.085938 -8.359375 7.671875 -12.640625 C 5.253906 -16.921875 4.046875 -21.753906 4.046875 -27.140625 C 4.046875 -32.535156 5.253906 -37.40625 7.671875 -41.75 C 10.085938 -46.101562 13.382812 -49.488281 17.5625 -51.90625 C 21.738281 -54.320312 26.347656 -55.53125 31.390625 -55.53125 C 36.429688 -55.53125 41.039062 -54.320312 45.21875 -51.90625 C 49.40625 -49.488281 52.707031 -46.101562 55.125 -41.75 C 57.539062 -37.40625 58.75 -32.535156 58.75 -27.140625 Z M 48.90625 -27.140625 C 48.90625 -30.867188 48.125 -34.203125 46.5625 -37.140625 C 45.007812 -40.078125 42.90625 -42.359375 40.25 -43.984375 C 37.59375 -45.609375 34.640625 -46.421875 31.390625 -46.421875 C 28.148438 -46.421875 25.195312 -45.609375 22.53125 -43.984375 C 19.875 -42.359375 17.769531 -40.078125 16.21875 -37.140625 C 14.664062 -34.203125 13.890625 -30.867188 13.890625 -27.140625 C 13.890625 -23.484375 14.664062 -20.203125 16.21875 -17.296875 C 17.769531 -14.398438 19.875 -12.140625 22.53125 -10.515625 C 25.195312 -8.890625 28.148438 -8.078125 31.390625 -8.078125 C 34.640625 -8.078125 37.59375 -8.890625 40.25 -10.515625 C 42.90625 -12.140625 45.007812 -14.398438 46.5625 -17.296875 C 48.125 -20.203125 48.90625 -23.484375 48.90625 -27.140625 Z M 48.90625 -27.140625 "/></g></g></g><g fill="#03306b" fill-opacity="1"><g transform="translate(315.366733, 135.914088)"><g><path d="M 35.015625 -55.53125 C 47.453125 -55.53125 53.671875 -48.070312 53.671875 -33.15625 L 53.671875 -4.96875 C 53.671875 -3.59375 53.203125 -2.421875 52.265625 -1.453125 C 51.335938 -0.484375 50.148438 0 48.703125 0 C 47.316406 0 46.15625 -0.484375 45.21875 -1.453125 C 44.289062 -2.421875 43.828125 -3.59375 43.828125 -4.96875 L 43.828125 -33.046875 C 43.828125 -37.128906 42.894531 -40.378906 41.03125 -42.796875 C 39.164062 -45.210938 36.125 -46.421875 31.90625 -46.421875 C 29.144531 -46.421875 26.640625 -45.816406 24.390625 -44.609375 C 22.148438 -43.398438 20.390625 -41.773438 19.109375 -39.734375 C 17.835938 -37.691406 17.203125 -35.460938 17.203125 -33.046875 L 17.203125 -4.96875 C 17.203125 -3.59375 16.734375 -2.421875 15.796875 -1.453125 C 14.867188 -0.484375 13.675781 0 12.21875 0 C 10.769531 0 9.597656 -0.460938 8.703125 -1.390625 C 7.804688 -2.328125 7.359375 -3.519531 7.359375 -4.96875 L 7.359375 -49.3125 C 7.359375 -50.695312 7.820312 -51.875 8.75 -52.84375 C 9.6875 -53.8125 10.84375 -54.296875 12.21875 -54.296875 C 13.675781 -54.296875 14.867188 -53.8125 15.796875 -52.84375 C 16.734375 -51.875 17.203125 -50.695312 17.203125 -49.3125 L 17.203125 -45.6875 C 18.992188 -48.457031 21.492188 -50.789062 24.703125 -52.6875 C 27.921875 -54.582031 31.359375 -55.53125 35.015625 -55.53125 Z M 35.015625 -55.53125 "/></g></g></g><g fill="#03306b" fill-opacity="1"><g transform="translate(375.877469, 135.914088)"><g><path d="M 55.015625 -29.21875 C 54.941406 -27.976562 54.421875 -26.925781 53.453125 -26.0625 C 52.492188 -25.195312 51.359375 -24.765625 50.046875 -24.765625 L 13.578125 -24.765625 C 14.054688 -19.722656 15.96875 -15.679688 19.3125 -12.640625 C 22.664062 -9.597656 26.757812 -8.078125 31.59375 -8.078125 C 34.914062 -8.078125 37.613281 -8.5625 39.6875 -9.53125 C 41.757812 -10.5 43.585938 -11.742188 45.171875 -13.265625 C 46.210938 -13.878906 47.210938 -14.1875 48.171875 -14.1875 C 49.347656 -14.1875 50.332031 -13.769531 51.125 -12.9375 C 51.925781 -12.113281 52.328125 -11.148438 52.328125 -10.046875 C 52.328125 -8.597656 51.632812 -7.285156 50.25 -6.109375 C 48.25 -4.109375 45.585938 -2.414062 42.265625 -1.03125 C 38.953125 0.34375 35.570312 1.03125 32.125 1.03125 C 26.519531 1.03125 21.59375 -0.140625 17.34375 -2.484375 C 13.101562 -4.835938 9.828125 -8.117188 7.515625 -12.328125 C 5.203125 -16.546875 4.046875 -21.3125 4.046875 -26.625 C 4.046875 -32.425781 5.234375 -37.519531 7.609375 -41.90625 C 9.992188 -46.289062 13.132812 -49.65625 17.03125 -52 C 20.9375 -54.351562 25.132812 -55.53125 29.625 -55.53125 C 34.050781 -55.53125 38.195312 -54.390625 42.0625 -52.109375 C 45.9375 -49.835938 49.046875 -46.695312 51.390625 -42.6875 C 53.734375 -38.675781 54.941406 -34.1875 55.015625 -29.21875 Z M 29.625 -46.421875 C 25.757812 -46.421875 22.410156 -45.332031 19.578125 -43.15625 C 16.742188 -40.976562 14.878906 -37.609375 13.984375 -33.046875 L 44.546875 -33.046875 L 44.546875 -33.875 C 44.203125 -37.539062 42.5625 -40.546875 39.625 -42.890625 C 36.695312 -45.242188 33.363281 -46.421875 29.625 -46.421875 Z M 29.625 -46.421875 "/></g></g></g><g fill="#03306b" fill-opacity="1"><g transform="translate(434.419532, 135.914088)"><g><path d="M 46.828125 -7.671875 C 47.585938 -6.835938 47.96875 -5.867188 47.96875 -4.765625 C 47.96875 -3.378906 47.445312 -2.1875 46.40625 -1.1875 C 45.375 -0.1875 44.238281 0.3125 43 0.3125 C 41.40625 0.3125 40.054688 -0.410156 38.953125 -1.859375 L 25.078125 -19.375 L 11.390625 -1.859375 C 10.910156 -1.171875 10.320312 -0.65625 9.625 -0.3125 C 8.9375 0.03125 8.210938 0.203125 7.453125 0.203125 C 6.285156 0.203125 5.195312 -0.226562 4.1875 -1.09375 C 3.1875 -1.957031 2.6875 -2.972656 2.6875 -4.140625 C 2.6875 -5.390625 3.066406 -6.425781 3.828125 -7.25 L 19.375 -26.625 L 3.421875 -46.734375 C 2.734375 -47.628906 2.390625 -48.59375 2.390625 -49.625 C 2.390625 -51.007812 2.890625 -52.1875 3.890625 -53.15625 C 4.890625 -54.125 6.046875 -54.609375 7.359375 -54.609375 C 9.015625 -54.609375 10.359375 -53.914062 11.390625 -52.53125 L 25.59375 -34.609375 L 38.953125 -52.421875 C 39.992188 -53.878906 41.304688 -54.609375 42.890625 -54.609375 C 44.203125 -54.609375 45.304688 -54.175781 46.203125 -53.3125 C 47.109375 -52.445312 47.5625 -51.425781 47.5625 -50.25 C 47.5625 -48.9375 47.179688 -47.863281 46.421875 -47.03125 L 31.078125 -27.65625 Z M 46.828125 -7.671875 "/></g></g></g><g fill="#03306b" fill-opacity="1"><g transform="translate(484.257983, 135.914088)"><g><path d="M 51.390625 -55.015625 C 52.835938 -55.015625 54.023438 -54.546875 54.953125 -53.609375 C 55.890625 -52.679688 56.359375 -51.457031 56.359375 -49.9375 L 56.359375 -4.96875 C 56.359375 -3.59375 55.890625 -2.421875 54.953125 -1.453125 C 54.023438 -0.484375 52.835938 0 51.390625 0 C 49.941406 0 48.765625 -0.460938 47.859375 -1.390625 C 46.960938 -2.328125 46.515625 -3.519531 46.515625 -4.96875 L 46.515625 -7.671875 C 44.722656 -5.253906 42.269531 -3.195312 39.15625 -1.5 C 36.050781 0.1875 32.703125 1.03125 29.109375 1.03125 C 24.410156 1.03125 20.144531 -0.175781 16.3125 -2.59375 C 12.476562 -5.007812 9.472656 -8.375 7.296875 -12.6875 C 5.128906 -17.007812 4.046875 -21.863281 4.046875 -27.25 C 4.046875 -32.632812 5.128906 -37.484375 7.296875 -41.796875 C 9.472656 -46.117188 12.460938 -49.488281 16.265625 -51.90625 C 20.066406 -54.320312 24.242188 -55.53125 28.796875 -55.53125 C 32.460938 -55.53125 35.863281 -54.769531 39 -53.25 C 42.144531 -51.726562 44.648438 -49.796875 46.515625 -47.453125 L 46.515625 -49.9375 C 46.515625 -51.382812 46.960938 -52.59375 47.859375 -53.5625 C 48.765625 -54.53125 49.941406 -55.015625 51.390625 -55.015625 Z M 30.25 -8.078125 C 33.5 -8.078125 36.382812 -8.90625 38.90625 -10.5625 C 41.425781 -12.226562 43.394531 -14.507812 44.8125 -17.40625 C 46.226562 -20.3125 46.9375 -23.59375 46.9375 -27.25 C 46.9375 -30.84375 46.226562 -34.085938 44.8125 -36.984375 C 43.394531 -39.890625 41.425781 -42.1875 38.90625 -43.875 C 36.382812 -45.570312 33.5 -46.421875 30.25 -46.421875 C 27.007812 -46.421875 24.128906 -45.585938 21.609375 -43.921875 C 19.085938 -42.265625 17.117188 -39.984375 15.703125 -37.078125 C 14.285156 -34.179688 13.578125 -30.90625 13.578125 -27.25 C 13.578125 -23.59375 14.285156 -20.3125 15.703125 -17.40625 C 17.117188 -14.507812 19.085938 -12.226562 21.609375 -10.5625 C 24.128906 -8.90625 27.007812 -8.078125 30.25 -8.078125 Z M 17.203125 -60.71875 C 15.828125 -60.71875 14.738281 -61.234375 13.9375 -62.265625 C 13.144531 -63.304688 12.785156 -64.789062 12.859375 -66.71875 C 13.066406 -69.070312 14.171875 -71.039062 16.171875 -72.625 C 18.171875 -74.21875 20.863281 -75.015625 24.25 -75.015625 C 25.769531 -75.015625 27.21875 -74.6875 28.59375 -74.03125 C 29.976562 -73.375 31.640625 -72.421875 33.578125 -71.171875 C 34.816406 -70.347656 35.847656 -69.710938 36.671875 -69.265625 C 37.503906 -68.816406 38.269531 -68.59375 38.96875 -68.59375 C 39.789062 -68.59375 40.441406 -68.847656 40.921875 -69.359375 C 41.410156 -69.878906 41.617188 -70.585938 41.546875 -71.484375 C 41.484375 -71.691406 41.453125 -72.039062 41.453125 -72.53125 C 41.453125 -73.425781 41.757812 -74.148438 42.375 -74.703125 C 43 -75.253906 43.757812 -75.53125 44.65625 -75.53125 C 46.039062 -75.53125 47.128906 -75.007812 47.921875 -73.96875 C 48.710938 -72.9375 49.078125 -71.523438 49.015625 -69.734375 C 48.804688 -67.453125 47.820312 -65.460938 46.0625 -63.765625 C 44.300781 -62.078125 41.765625 -61.234375 38.453125 -61.234375 C 37.203125 -61.234375 35.90625 -61.523438 34.5625 -62.109375 C 33.21875 -62.703125 31.539062 -63.582031 29.53125 -64.75 C 28.007812 -65.644531 26.75 -66.332031 25.75 -66.8125 C 24.75 -67.300781 23.867188 -67.546875 23.109375 -67.546875 C 22.285156 -67.546875 21.613281 -67.300781 21.09375 -66.8125 C 20.570312 -66.332031 20.3125 -65.613281 20.3125 -64.65625 C 20.382812 -64.445312 20.421875 -64.171875 20.421875 -63.828125 C 20.421875 -62.859375 20.109375 -62.097656 19.484375 -61.546875 C 18.859375 -60.992188 18.097656 -60.71875 17.203125 -60.71875 Z M 17.203125 -60.71875 "/></g></g></g><g fill="#03306b" fill-opacity="1"><g transform="translate(547.359071, 135.914088)"><g><path d="M 58.75 -27.140625 C 58.75 -21.753906 57.539062 -16.921875 55.125 -12.640625 C 52.707031 -8.359375 49.40625 -5.007812 45.21875 -2.59375 C 41.039062 -0.175781 36.429688 1.03125 31.390625 1.03125 C 26.347656 1.03125 21.738281 -0.175781 17.5625 -2.59375 C 13.382812 -5.007812 10.085938 -8.359375 7.671875 -12.640625 C 5.253906 -16.921875 4.046875 -21.753906 4.046875 -27.140625 C 4.046875 -32.535156 5.253906 -37.40625 7.671875 -41.75 C 10.085938 -46.101562 13.382812 -49.488281 17.5625 -51.90625 C 21.738281 -54.320312 26.347656 -55.53125 31.390625 -55.53125 C 36.429688 -55.53125 41.039062 -54.320312 45.21875 -51.90625 C 49.40625 -49.488281 52.707031 -46.101562 55.125 -41.75 C 57.539062 -37.40625 58.75 -32.535156 58.75 -27.140625 Z M 48.90625 -27.140625 C 48.90625 -30.867188 48.125 -34.203125 46.5625 -37.140625 C 45.007812 -40.078125 42.90625 -42.359375 40.25 -43.984375 C 37.59375 -45.609375 34.640625 -46.421875 31.390625 -46.421875 C 28.148438 -46.421875 25.195312 -45.609375 22.53125 -43.984375 C 19.875 -42.359375 17.769531 -40.078125 16.21875 -37.140625 C 14.664062 -34.203125 13.890625 -30.867188 13.890625 -27.140625 C 13.890625 -23.484375 14.664062 -20.203125 16.21875 -17.296875 C 17.769531 -14.398438 19.875 -12.140625 22.53125 -10.515625 C 25.195312 -8.890625 28.148438 -8.078125 31.390625 -8.078125 C 34.640625 -8.078125 37.59375 -8.890625 40.25 -10.515625 C 42.90625 -12.140625 45.007812 -14.398438 46.5625 -17.296875 C 48.125 -20.203125 48.90625 -23.484375 48.90625 -27.140625 Z M 48.90625 -27.140625 "/></g></g></g><g fill="#03306b" fill-opacity="1"><g transform="translate(609.634805, 135.914088)"><g/></g></g><g fill="#03306b" fill-opacity="1"><g transform="translate(201.359449, 232.706168)"><g><path d="M 16.6875 -4.96875 C 16.6875 -3.59375 16.21875 -2.421875 15.28125 -1.453125 C 14.351562 -0.484375 13.160156 0 11.703125 0 C 10.328125 0 9.171875 -0.484375 8.234375 -1.453125 C 7.304688 -2.421875 6.84375 -3.59375 6.84375 -4.96875 L 6.84375 -49.84375 C 6.84375 -51.21875 7.304688 -52.390625 8.234375 -53.359375 C 9.171875 -54.328125 10.328125 -54.8125 11.703125 -54.8125 C 13.160156 -54.8125 14.351562 -54.328125 15.28125 -53.359375 C 16.21875 -52.390625 16.6875 -51.21875 16.6875 -49.84375 Z M 11.703125 -61.640625 C 9.703125 -61.640625 8.269531 -62.003906 7.40625 -62.734375 C 6.539062 -63.460938 6.109375 -64.617188 6.109375 -66.203125 L 6.109375 -67.859375 C 6.109375 -69.515625 6.570312 -70.6875 7.5 -71.375 C 8.4375 -72.070312 9.875 -72.421875 11.8125 -72.421875 C 13.75 -72.421875 15.144531 -72.054688 16 -71.328125 C 16.863281 -70.609375 17.296875 -69.453125 17.296875 -67.859375 L 17.296875 -66.203125 C 17.296875 -64.546875 16.847656 -63.367188 15.953125 -62.671875 C 15.054688 -61.984375 13.640625 -61.640625 11.703125 -61.640625 Z M 11.703125 -61.640625 "/></g></g></g><g fill="#03306b" fill-opacity="1"><g transform="translate(227.055963, 232.706168)"><g><path d="M 35.015625 -55.53125 C 47.453125 -55.53125 53.671875 -48.070312 53.671875 -33.15625 L 53.671875 -4.96875 C 53.671875 -3.59375 53.203125 -2.421875 52.265625 -1.453125 C 51.335938 -0.484375 50.148438 0 48.703125 0 C 47.316406 0 46.15625 -0.484375 45.21875 -1.453125 C 44.289062 -2.421875 43.828125 -3.59375 43.828125 -4.96875 L 43.828125 -33.046875 C 43.828125 -37.128906 42.894531 -40.378906 41.03125 -42.796875 C 39.164062 -45.210938 36.125 -46.421875 31.90625 -46.421875 C 29.144531 -46.421875 26.640625 -45.816406 24.390625 -44.609375 C 22.148438 -43.398438 20.390625 -41.773438 19.109375 -39.734375 C 17.835938 -37.691406 17.203125 -35.460938 17.203125 -33.046875 L 17.203125 -4.96875 C 17.203125 -3.59375 16.734375 -2.421875 15.796875 -1.453125 C 14.867188 -0.484375 13.675781 0 12.21875 0 C 10.769531 0 9.597656 -0.460938 8.703125 -1.390625 C 7.804688 -2.328125 7.359375 -3.519531 7.359375 -4.96875 L 7.359375 -49.3125 C 7.359375 -50.695312 7.820312 -51.875 8.75 -52.84375 C 9.6875 -53.8125 10.84375 -54.296875 12.21875 -54.296875 C 13.675781 -54.296875 14.867188 -53.8125 15.796875 -52.84375 C 16.734375 -51.875 17.203125 -50.695312 17.203125 -49.3125 L 17.203125 -45.6875 C 18.992188 -48.457031 21.492188 -50.789062 24.703125 -52.6875 C 27.921875 -54.582031 31.359375 -55.53125 35.015625 -55.53125 Z M 35.015625 -55.53125 "/></g></g></g><g fill="#03306b" fill-opacity="1"><g transform="translate(290.260877, 232.706168)"><g><path d="M 30.5625 -67.765625 C 28.28125 -67.765625 26.601562 -67.070312 25.53125 -65.6875 C 24.46875 -64.300781 23.9375 -62.609375 23.9375 -60.609375 L 23.9375 -53.359375 L 34.1875 -53.359375 C 35.570312 -53.359375 36.695312 -52.925781 37.5625 -52.0625 C 38.425781 -51.195312 38.859375 -50.109375 38.859375 -48.796875 C 38.859375 -47.484375 38.425781 -46.410156 37.5625 -45.578125 C 36.695312 -44.753906 35.570312 -44.34375 34.1875 -44.34375 L 23.9375 -44.34375 L 23.9375 -4.96875 C 23.9375 -3.59375 23.46875 -2.421875 22.53125 -1.453125 C 21.601562 -0.484375 20.410156 0 18.953125 0 C 17.578125 0 16.421875 -0.484375 15.484375 -1.453125 C 14.554688 -2.421875 14.09375 -3.59375 14.09375 -4.96875 L 14.09375 -44.34375 L 7.671875 -44.34375 C 6.359375 -44.34375 5.25 -44.753906 4.34375 -45.578125 C 3.445312 -46.410156 3 -47.484375 3 -48.796875 C 3 -50.109375 3.445312 -51.195312 4.34375 -52.0625 C 5.25 -52.925781 6.359375 -53.359375 7.671875 -53.359375 L 14.09375 -53.359375 L 14.09375 -60.609375 C 14.09375 -65.441406 15.644531 -69.289062 18.75 -72.15625 C 21.863281 -75.03125 26.25 -76.46875 31.90625 -76.46875 C 34.257812 -76.46875 36.332031 -76.035156 38.125 -75.171875 C 39.925781 -74.304688 40.828125 -73.007812 40.828125 -71.28125 C 40.828125 -69.96875 40.425781 -68.878906 39.625 -68.015625 C 38.832031 -67.148438 37.882812 -66.71875 36.78125 -66.71875 C 36.5 -66.71875 35.738281 -66.859375 34.5 -67.140625 C 32.976562 -67.554688 31.664062 -67.765625 30.5625 -67.765625 Z M 30.5625 -67.765625 "/></g></g></g><g fill="#03306b" fill-opacity="1"><g transform="translate(332.846535, 232.706168)"><g><path d="M 51.390625 -55.015625 C 52.835938 -55.015625 54.023438 -54.546875 54.953125 -53.609375 C 55.890625 -52.679688 56.359375 -51.457031 56.359375 -49.9375 L 56.359375 -4.96875 C 56.359375 -3.59375 55.890625 -2.421875 54.953125 -1.453125 C 54.023438 -0.484375 52.835938 0 51.390625 0 C 49.941406 0 48.765625 -0.460938 47.859375 -1.390625 C 46.960938 -2.328125 46.515625 -3.519531 46.515625 -4.96875 L 46.515625 -7.671875 C 44.722656 -5.253906 42.269531 -3.195312 39.15625 -1.5 C 36.050781 0.1875 32.703125 1.03125 29.109375 1.03125 C 24.410156 1.03125 20.144531 -0.175781 16.3125 -2.59375 C 12.476562 -5.007812 9.472656 -8.375 7.296875 -12.6875 C 5.128906 -17.007812 4.046875 -21.863281 4.046875 -27.25 C 4.046875 -32.632812 5.128906 -37.484375 7.296875 -41.796875 C 9.472656 -46.117188 12.460938 -49.488281 16.265625 -51.90625 C 20.066406 -54.320312 24.242188 -55.53125 28.796875 -55.53125 C 32.460938 -55.53125 35.863281 -54.769531 39 -53.25 C 42.144531 -51.726562 44.648438 -49.796875 46.515625 -47.453125 L 46.515625 -49.9375 C 46.515625 -51.382812 46.960938 -52.59375 47.859375 -53.5625 C 48.765625 -54.53125 49.941406 -55.015625 51.390625 -55.015625 Z M 30.25 -8.078125 C 33.5 -8.078125 36.382812 -8.90625 38.90625 -10.5625 C 41.425781 -12.226562 43.394531 -14.507812 44.8125 -17.40625 C 46.226562 -20.3125 46.9375 -23.59375 46.9375 -27.25 C 46.9375 -30.84375 46.226562 -34.085938 44.8125 -36.984375 C 43.394531 -39.890625 41.425781 -42.1875 38.90625 -43.875 C 36.382812 -45.570312 33.5 -46.421875 30.25 -46.421875 C 27.007812 -46.421875 24.128906 -45.585938 21.609375 -43.921875 C 19.085938 -42.265625 17.117188 -39.984375 15.703125 -37.078125 C 14.285156 -34.179688 13.578125 -30.90625 13.578125 -27.25 C 13.578125 -23.59375 14.285156 -20.3125 15.703125 -17.40625 C 17.117188 -14.507812 19.085938 -12.226562 21.609375 -10.5625 C 24.128906 -8.90625 27.007812 -8.078125 30.25 -8.078125 Z M 43.203125 -65.890625 C 43.617188 -65.335938 43.894531 -64.890625 44.03125 -64.546875 C 44.164062 -64.203125 44.234375 -63.785156 44.234375 -63.296875 C 44.234375 -62.679688 43.988281 -62.164062 43.5 -61.75 C 43.019531 -61.332031 42.398438 -61.125 41.640625 -61.125 C 40.742188 -61.125 40.085938 -61.242188 39.671875 -61.484375 C 39.265625 -61.734375 38.578125 -62.269531 37.609375 -63.09375 L 30.96875 -68.6875 L 24.234375 -63.09375 C 24.023438 -62.882812 23.660156 -62.570312 23.140625 -62.15625 C 22.628906 -61.75 22.148438 -61.457031 21.703125 -61.28125 C 21.253906 -61.113281 20.71875 -61.03125 20.09375 -61.03125 C 19.40625 -61.03125 18.816406 -61.253906 18.328125 -61.703125 C 17.847656 -62.148438 17.609375 -62.648438 17.609375 -63.203125 C 17.609375 -63.753906 17.675781 -64.203125 17.8125 -64.546875 C 17.945312 -64.890625 18.222656 -65.304688 18.640625 -65.796875 L 24.765625 -73.046875 C 26.003906 -74.703125 27.726562 -75.53125 29.9375 -75.53125 L 32.734375 -75.53125 C 33.835938 -75.53125 34.734375 -75.359375 35.421875 -75.015625 C 36.117188 -74.671875 36.773438 -74.015625 37.390625 -73.046875 Z M 43.203125 -65.890625 "/></g></g></g><g fill="#03306b" fill-opacity="1"><g transform="translate(398.641801, 232.706168)"><g><path d="M 35.015625 -55.53125 C 47.453125 -55.53125 53.671875 -48.070312 53.671875 -33.15625 L 53.671875 -4.96875 C 53.671875 -3.59375 53.203125 -2.421875 52.265625 -1.453125 C 51.335938 -0.484375 50.148438 0 48.703125 0 C 47.316406 0 46.15625 -0.484375 45.21875 -1.453125 C 44.289062 -2.421875 43.828125 -3.59375 43.828125 -4.96875 L 43.828125 -33.046875 C 43.828125 -37.128906 42.894531 -40.378906 41.03125 -42.796875 C 39.164062 -45.210938 36.125 -46.421875 31.90625 -46.421875 C 29.144531 -46.421875 26.640625 -45.816406 24.390625 -44.609375 C 22.148438 -43.398438 20.390625 -41.773438 19.109375 -39.734375 C 17.835938 -37.691406 17.203125 -35.460938 17.203125 -33.046875 L 17.203125 -4.96875 C 17.203125 -3.59375 16.734375 -2.421875 15.796875 -1.453125 C 14.867188 -0.484375 13.675781 0 12.21875 0 C 10.769531 0 9.597656 -0.460938 8.703125 -1.390625 C 7.804688 -2.328125 7.359375 -3.519531 7.359375 -4.96875 L 7.359375 -49.3125 C 7.359375 -50.695312 7.820312 -51.875 8.75 -52.84375 C 9.6875 -53.8125 10.84375 -54.296875 12.21875 -54.296875 C 13.675781 -54.296875 14.867188 -53.8125 15.796875 -52.84375 C 16.734375 -51.875 17.203125 -50.695312 17.203125 -49.3125 L 17.203125 -45.6875 C 18.992188 -48.457031 21.492188 -50.789062 24.703125 -52.6875 C 27.921875 -54.582031 31.359375 -55.53125 35.015625 -55.53125 Z M 35.015625 -55.53125 "/></g></g></g><g fill="#03306b" fill-opacity="1"><g transform="translate(461.846705, 232.706168)"><g><path d="M 30.984375 -55.53125 C 36.441406 -55.53125 40.984375 -54.664062 44.609375 -52.9375 C 48.234375 -51.21875 50.046875 -49.007812 50.046875 -46.3125 C 50.046875 -45.132812 49.664062 -44.078125 48.90625 -43.140625 C 48.144531 -42.210938 47.175781 -41.75 46 -41.75 C 45.101562 -41.75 44.394531 -41.882812 43.875 -42.15625 C 43.351562 -42.4375 42.644531 -42.890625 41.75 -43.515625 C 41.34375 -43.929688 40.6875 -44.414062 39.78125 -44.96875 C 38.957031 -45.382812 37.785156 -45.726562 36.265625 -46 C 34.742188 -46.28125 33.363281 -46.421875 32.125 -46.421875 C 28.53125 -46.421875 25.347656 -45.585938 22.578125 -43.921875 C 19.816406 -42.265625 17.675781 -39.96875 16.15625 -37.03125 C 14.644531 -34.101562 13.890625 -30.84375 13.890625 -27.25 C 13.890625 -23.59375 14.628906 -20.3125 16.109375 -17.40625 C 17.597656 -14.507812 19.6875 -12.226562 22.375 -10.5625 C 25.070312 -8.90625 28.144531 -8.078125 31.59375 -8.078125 C 35.1875 -8.078125 38.085938 -8.628906 40.296875 -9.734375 C 40.785156 -10.015625 41.441406 -10.46875 42.265625 -11.09375 C 42.960938 -11.644531 43.566406 -12.054688 44.078125 -12.328125 C 44.597656 -12.609375 45.238281 -12.75 46 -12.75 C 47.382812 -12.75 48.472656 -12.316406 49.265625 -11.453125 C 50.054688 -10.585938 50.453125 -9.460938 50.453125 -8.078125 C 50.453125 -6.628906 49.535156 -5.195312 47.703125 -3.78125 C 45.878906 -2.363281 43.429688 -1.207031 40.359375 -0.3125 C 37.285156 0.582031 33.988281 1.03125 30.46875 1.03125 C 25.21875 1.03125 20.585938 -0.191406 16.578125 -2.640625 C 12.566406 -5.085938 9.472656 -8.46875 7.296875 -12.78125 C 5.128906 -17.101562 4.046875 -21.925781 4.046875 -27.25 C 4.046875 -32.570312 5.179688 -37.390625 7.453125 -41.703125 C 9.734375 -46.015625 12.910156 -49.394531 16.984375 -51.84375 C 21.066406 -54.300781 25.734375 -55.53125 30.984375 -55.53125 Z M 30.984375 -55.53125 "/></g></g></g><g fill="#03306b" fill-opacity="1"><g transform="translate(517.280543, 232.706168)"><g><path d="M 16.6875 -4.96875 C 16.6875 -3.59375 16.21875 -2.421875 15.28125 -1.453125 C 14.351562 -0.484375 13.160156 0 11.703125 0 C 10.328125 0 9.171875 -0.484375 8.234375 -1.453125 C 7.304688 -2.421875 6.84375 -3.59375 6.84375 -4.96875 L 6.84375 -49.84375 C 6.84375 -51.21875 7.304688 -52.390625 8.234375 -53.359375 C 9.171875 -54.328125 10.328125 -54.8125 11.703125 -54.8125 C 13.160156 -54.8125 14.351562 -54.328125 15.28125 -53.359375 C 16.21875 -52.390625 16.6875 -51.21875 16.6875 -49.84375 Z M 11.703125 -61.640625 C 9.703125 -61.640625 8.269531 -62.003906 7.40625 -62.734375 C 6.539062 -63.460938 6.109375 -64.617188 6.109375 -66.203125 L 6.109375 -67.859375 C 6.109375 -69.515625 6.570312 -70.6875 7.5 -71.375 C 8.4375 -72.070312 9.875 -72.421875 11.8125 -72.421875 C 13.75 -72.421875 15.144531 -72.054688 16 -71.328125 C 16.863281 -70.609375 17.296875 -69.453125 17.296875 -67.859375 L 17.296875 -66.203125 C 17.296875 -64.546875 16.847656 -63.367188 15.953125 -62.671875 C 15.054688 -61.984375 13.640625 -61.640625 11.703125 -61.640625 Z M 11.703125 -61.640625 "/></g></g></g><g fill="#03306b" fill-opacity="1"><g transform="translate(542.977054, 232.706168)"><g><path d="M 51.390625 -55.015625 C 52.835938 -55.015625 54.023438 -54.546875 54.953125 -53.609375 C 55.890625 -52.679688 56.359375 -51.457031 56.359375 -49.9375 L 56.359375 -4.96875 C 56.359375 -3.59375 55.890625 -2.421875 54.953125 -1.453125 C 54.023438 -0.484375 52.835938 0 51.390625 0 C 49.941406 0 48.765625 -0.460938 47.859375 -1.390625 C 46.960938 -2.328125 46.515625 -3.519531 46.515625 -4.96875 L 46.515625 -7.671875 C 44.722656 -5.253906 42.269531 -3.195312 39.15625 -1.5 C 36.050781 0.1875 32.703125 1.03125 29.109375 1.03125 C 24.410156 1.03125 20.144531 -0.175781 16.3125 -2.59375 C 12.476562 -5.007812 9.472656 -8.375 7.296875 -12.6875 C 5.128906 -17.007812 4.046875 -21.863281 4.046875 -27.25 C 4.046875 -32.632812 5.128906 -37.484375 7.296875 -41.796875 C 9.472656 -46.117188 12.460938 -49.488281 16.265625 -51.90625 C 20.066406 -54.320312 24.242188 -55.53125 28.796875 -55.53125 C 32.460938 -55.53125 35.863281 -54.769531 39 -53.25 C 42.144531 -51.726562 44.648438 -49.796875 46.515625 -47.453125 L 46.515625 -49.9375 C 46.515625 -51.382812 46.960938 -52.59375 47.859375 -53.5625 C 48.765625 -54.53125 49.941406 -55.015625 51.390625 -55.015625 Z M 30.25 -8.078125 C 33.5 -8.078125 36.382812 -8.90625 38.90625 -10.5625 C 41.425781 -12.226562 43.394531 -14.507812 44.8125 -17.40625 C 46.226562 -20.3125 46.9375 -23.59375 46.9375 -27.25 C 46.9375 -30.84375 46.226562 -34.085938 44.8125 -36.984375 C 43.394531 -39.890625 41.425781 -42.1875 38.90625 -43.875 C 36.382812 -45.570312 33.5 -46.421875 30.25 -46.421875 C 27.007812 -46.421875 24.128906 -45.585938 21.609375 -43.921875 C 19.085938 -42.265625 17.117188 -39.984375 15.703125 -37.078125 C 14.285156 -34.179688 13.578125 -30.90625 13.578125 -27.25 C 13.578125 -23.59375 14.285156 -20.3125 15.703125 -17.40625 C 17.117188 -14.507812 19.085938 -12.226562 21.609375 -10.5625 C 24.128906 -8.90625 27.007812 -8.078125 30.25 -8.078125 Z M 30.25 -8.078125 "/></g></g></g></svg>