<svg xmlns="http://www.w3.org/2000/svg" xmlns:xlink="http://www.w3.org/1999/xlink" width="656" zoomAndPan="magnify" viewBox="0 0 492 701.249978" height="935" preserveAspectRatio="xMidYMid meet" version="1.0"><defs><g/><clipPath id="6af16bef15"><path d="M 36.605469 192 L 287 192 L 287 422.546875 L 36.605469 422.546875 Z M 36.605469 192 " clip-rule="nonzero"/></clipPath><clipPath id="9319e3fbc5"><path d="M 225 172 L 455.410156 172 L 455.410156 422.546875 L 225 422.546875 Z M 225 172 " clip-rule="nonzero"/></clipPath><clipPath id="826a08aaa5"><path d="M 205 0 L 455.410156 0 L 455.410156 231 L 205 231 Z M 205 0 " clip-rule="nonzero"/></clipPath></defs><g clip-path="url(#6af16bef15)"><path fill="#ff004b" d="M 282.082031 326.523438 C 262.851562 360.320312 198.507812 406.289062 190.929688 411.429688 C 183.347656 416.570312 175.484375 419.207031 166.726562 420.511719 C 157.96875 421.816406 60.761719 424.609375 51.359375 419.597656 C 51.359375 419.597656 43.28125 415.179688 40.535156 406.953125 C 37.792969 398.722656 32.765625 306.25 41.605469 286.429688 C 50.441406 266.609375 122.796875 201.175781 131.941406 196.210938 C 141.085938 191.242188 160.765625 189.199219 173.890625 201.714844 C 185.753906 213.023438 187.761719 230.816406 185.015625 244.222656 C 182.273438 257.632812 126.054688 308.867188 124.988281 311.761719 C 123.921875 314.65625 119.808594 341.375 119.808594 341.375 C 119.808594 341.375 150.382812 336.824219 157.964844 333.089844 C 165.855469 329.207031 213.363281 278.660156 225.710938 273.476562 C 238.054688 268.296875 304.066406 260.152344 282.082031 326.523438 Z M 282.082031 326.523438 " fill-opacity="1" fill-rule="evenodd"/></g><g clip-path="url(#9319e3fbc5)"><path fill="#b30082" d="M 359.363281 177.058594 C 393.167969 196.285156 439.148438 260.609375 444.289062 268.191406 C 449.429688 275.769531 452.070312 283.632812 453.375 292.382812 C 454.679688 301.144531 457.472656 398.324219 452.460938 407.726562 C 452.460938 407.726562 448.039062 415.800781 439.808594 418.542969 C 431.582031 421.285156 339.082031 426.316406 319.257812 417.476562 C 299.433594 408.640625 233.984375 336.304688 229.015625 327.160156 C 224.046875 318.019531 222.003906 298.34375 234.519531 285.222656 C 245.832031 273.363281 263.628906 271.359375 277.042969 274.101562 C 290.453125 276.84375 341.699219 333.046875 344.59375 334.113281 C 347.492188 335.179688 374.21875 339.292969 374.21875 339.292969 C 374.21875 339.292969 369.664062 308.726562 365.933594 301.144531 C 362.046875 293.257812 311.484375 245.761719 306.304688 233.417969 C 301.121094 221.078125 292.972656 155.082031 359.363281 177.058594 Z M 359.363281 177.058594 " fill-opacity="1" fill-rule="evenodd"/></g><g clip-path="url(#826a08aaa5)"><path fill="#ffa500" d="M 209.859375 95.949219 C 229.089844 62.152344 293.433594 16.179688 301.015625 11.042969 C 308.59375 5.902344 316.460938 3.265625 325.214844 1.960938 C 333.976562 0.65625 431.179688 -2.136719 440.585938 2.875 C 440.585938 2.875 448.660156 7.292969 451.40625 15.519531 C 454.148438 23.75 459.179688 116.222656 450.339844 136.042969 C 441.5 155.863281 369.144531 221.292969 360 226.261719 C 350.855469 231.230469 331.175781 233.273438 318.050781 220.757812 C 306.1875 209.449219 304.183594 191.65625 306.925781 178.25 C 309.667969 164.839844 365.886719 113.605469 366.953125 110.710938 C 368.019531 107.816406 372.136719 81.09375 372.136719 81.09375 C 372.136719 81.09375 341.558594 85.648438 333.976562 89.378906 C 326.085938 93.265625 278.578125 143.8125 266.234375 148.992188 C 253.886719 154.175781 187.875 162.320312 209.859375 95.949219 Z M 209.859375 95.949219 " fill-opacity="1" fill-rule="evenodd"/></g><path fill="#7dcfba" d="M 145.769531 245.097656 C 110.820312 228.039062 60.875 166.738281 55.269531 159.496094 C 49.660156 152.257812 46.53125 144.578125 44.679688 135.921875 C 42.824219 127.265625 33.914062 30.453125 38.324219 20.753906 C 38.324219 20.753906 42.222656 12.414062 50.265625 9.160156 C 58.304688 5.90625 150.300781 -4.9375 170.644531 2.632812 C 190.988281 10.203125 260.863281 78.273438 266.398438 87.082031 C 271.9375 95.894531 275.210938 115.402344 263.546875 129.285156 C 253.003906 141.835938 235.371094 144.957031 221.8125 143.066406 C 208.253906 141.171875 153.570312 88.308594 150.613281 87.425781 C 147.652344 86.542969 120.71875 84.121094 120.71875 84.121094 C 120.71875 84.121094 127.191406 114.34375 131.394531 121.671875 C 135.769531 129.300781 189.222656 173.519531 195.171875 185.507812 C 201.121094 197.5 213.410156 262.851562 145.769531 245.097656 Z M 145.769531 245.097656 " fill-opacity="1" fill-rule="evenodd"/><path fill="#ff004b" d="M 124.988281 311.761719 C 123.921875 314.65625 32.765625 306.25 41.605469 286.429688 C 50.445312 266.609375 122.796875 201.175781 131.941406 196.207031 C 141.085938 191.242188 160.765625 189.199219 173.890625 201.714844 C 185.757812 213.023438 187.761719 230.816406 185.019531 244.222656 C 182.273438 257.632812 126.054688 308.863281 124.988281 311.761719 Z M 124.988281 311.761719 " fill-opacity="1" fill-rule="evenodd"/><g fill="#03306b" fill-opacity="1"><g transform="translate(36.341642, 541.193334)"><g><path d="M 31.6875 -56.796875 C 37.257812 -56.796875 41.898438 -55.910156 45.609375 -54.140625 C 49.316406 -52.378906 51.171875 -50.117188 51.171875 -47.359375 C 51.171875 -46.160156 50.78125 -45.082031 50 -44.125 C 49.226562 -43.175781 48.242188 -42.703125 47.046875 -42.703125 C 46.128906 -42.703125 45.40625 -42.84375 44.875 -43.125 C 44.34375 -43.40625 43.617188 -43.863281 42.703125 -44.5 C 42.273438 -44.925781 41.601562 -45.421875 40.6875 -45.984375 C 39.84375 -46.410156 38.640625 -46.765625 37.078125 -47.046875 C 35.523438 -47.328125 34.113281 -47.46875 32.84375 -47.46875 C 29.164062 -47.46875 25.914062 -46.617188 23.09375 -44.921875 C 20.269531 -43.222656 18.082031 -40.875 16.53125 -37.875 C 14.976562 -34.875 14.203125 -31.535156 14.203125 -27.859375 C 14.203125 -24.117188 14.957031 -20.765625 16.46875 -17.796875 C 17.988281 -14.828125 20.125 -12.492188 22.875 -10.796875 C 25.632812 -9.109375 28.78125 -8.265625 32.3125 -8.265625 C 35.988281 -8.265625 38.957031 -8.828125 41.21875 -9.953125 C 41.707031 -10.242188 42.378906 -10.707031 43.234375 -11.34375 C 43.929688 -11.90625 44.546875 -12.328125 45.078125 -12.609375 C 45.609375 -12.890625 46.265625 -13.03125 47.046875 -13.03125 C 48.453125 -13.03125 49.5625 -12.585938 50.375 -11.703125 C 51.1875 -10.828125 51.59375 -9.679688 51.59375 -8.265625 C 51.59375 -6.785156 50.65625 -5.316406 48.78125 -3.859375 C 46.914062 -2.410156 44.410156 -1.226562 41.265625 -0.3125 C 38.117188 0.601562 34.75 1.0625 31.15625 1.0625 C 25.78125 1.0625 21.046875 -0.191406 16.953125 -2.703125 C 12.859375 -5.210938 9.695312 -8.671875 7.46875 -13.078125 C 5.238281 -17.492188 4.125 -22.421875 4.125 -27.859375 C 4.125 -33.304688 5.289062 -38.234375 7.625 -42.640625 C 9.957031 -47.054688 13.207031 -50.519531 17.375 -53.03125 C 21.539062 -55.539062 26.3125 -56.796875 31.6875 -56.796875 Z M 31.6875 -56.796875 "/></g></g></g><g fill="#03306b" fill-opacity="1"><g transform="translate(90.270458, 541.193334)"><g><path d="M 60.078125 -27.765625 C 60.078125 -22.253906 58.835938 -17.304688 56.359375 -12.921875 C 53.890625 -8.546875 50.519531 -5.117188 46.25 -2.640625 C 41.976562 -0.171875 37.265625 1.0625 32.109375 1.0625 C 26.953125 1.0625 22.234375 -0.171875 17.953125 -2.640625 C 13.679688 -5.117188 10.304688 -8.546875 7.828125 -12.921875 C 5.359375 -17.304688 4.125 -22.253906 4.125 -27.765625 C 4.125 -33.273438 5.359375 -38.253906 7.828125 -42.703125 C 10.304688 -47.148438 13.679688 -50.609375 17.953125 -53.078125 C 22.234375 -55.554688 26.953125 -56.796875 32.109375 -56.796875 C 37.265625 -56.796875 41.976562 -55.554688 46.25 -53.078125 C 50.519531 -50.609375 53.890625 -47.148438 56.359375 -42.703125 C 58.835938 -38.253906 60.078125 -33.273438 60.078125 -27.765625 Z M 50.015625 -27.765625 C 50.015625 -31.578125 49.21875 -34.984375 47.625 -37.984375 C 46.03125 -40.984375 43.875 -43.3125 41.15625 -44.96875 C 38.4375 -46.632812 35.421875 -47.46875 32.109375 -47.46875 C 28.785156 -47.46875 25.765625 -46.632812 23.046875 -44.96875 C 20.328125 -43.3125 18.171875 -40.984375 16.578125 -37.984375 C 14.992188 -34.984375 14.203125 -31.578125 14.203125 -27.765625 C 14.203125 -24.015625 14.992188 -20.65625 16.578125 -17.6875 C 18.171875 -14.726562 20.328125 -12.414062 23.046875 -10.75 C 25.765625 -9.09375 28.785156 -8.265625 32.109375 -8.265625 C 35.421875 -8.265625 38.4375 -9.09375 41.15625 -10.75 C 43.875 -12.414062 46.03125 -14.726562 47.625 -17.6875 C 49.21875 -20.65625 50.015625 -24.015625 50.015625 -27.765625 Z M 50.015625 -27.765625 "/></g></g></g><g fill="#03306b" fill-opacity="1"><g transform="translate(153.946723, 541.193334)"><g><path d="M 35.8125 -56.796875 C 48.53125 -56.796875 54.890625 -49.164062 54.890625 -33.90625 L 54.890625 -5.078125 C 54.890625 -3.671875 54.410156 -2.472656 53.453125 -1.484375 C 52.492188 -0.492188 51.273438 0 49.796875 0 C 48.378906 0 47.191406 -0.492188 46.234375 -1.484375 C 45.285156 -2.472656 44.8125 -3.671875 44.8125 -5.078125 L 44.8125 -33.796875 C 44.8125 -37.960938 43.859375 -41.28125 41.953125 -43.75 C 40.046875 -46.226562 36.941406 -47.46875 32.640625 -47.46875 C 29.804688 -47.46875 27.242188 -46.847656 24.953125 -45.609375 C 22.660156 -44.378906 20.859375 -42.71875 19.546875 -40.625 C 18.242188 -38.539062 17.59375 -36.265625 17.59375 -33.796875 L 17.59375 -5.078125 C 17.59375 -3.671875 17.113281 -2.472656 16.15625 -1.484375 C 15.207031 -0.492188 13.988281 0 12.5 0 C 11.019531 0 9.816406 -0.472656 8.890625 -1.421875 C 7.972656 -2.378906 7.515625 -3.597656 7.515625 -5.078125 L 7.515625 -50.4375 C 7.515625 -51.84375 7.992188 -53.039062 8.953125 -54.03125 C 9.910156 -55.019531 11.09375 -55.515625 12.5 -55.515625 C 13.988281 -55.515625 15.207031 -55.019531 16.15625 -54.03125 C 17.113281 -53.039062 17.59375 -51.84375 17.59375 -50.4375 L 17.59375 -46.71875 C 19.425781 -49.550781 21.984375 -51.9375 25.265625 -53.875 C 28.554688 -55.820312 32.070312 -56.796875 35.8125 -56.796875 Z M 35.8125 -56.796875 "/></g></g></g><g fill="#03306b" fill-opacity="1"><g transform="translate(215.821823, 541.193334)"><g><path d="M 56.265625 -29.875 C 56.191406 -28.601562 55.660156 -27.523438 54.671875 -26.640625 C 53.679688 -25.765625 52.515625 -25.328125 51.171875 -25.328125 L 13.875 -25.328125 C 14.375 -20.171875 16.335938 -16.035156 19.765625 -12.921875 C 23.191406 -9.816406 27.375 -8.265625 32.3125 -8.265625 C 35.707031 -8.265625 38.460938 -8.757812 40.578125 -9.75 C 42.703125 -10.738281 44.578125 -12.007812 46.203125 -13.5625 C 47.253906 -14.195312 48.273438 -14.515625 49.265625 -14.515625 C 50.460938 -14.515625 51.46875 -14.085938 52.28125 -13.234375 C 53.09375 -12.390625 53.5 -11.40625 53.5 -10.28125 C 53.5 -8.789062 52.796875 -7.445312 51.390625 -6.25 C 49.335938 -4.195312 46.613281 -2.460938 43.21875 -1.046875 C 39.832031 0.359375 36.375 1.0625 32.84375 1.0625 C 27.125 1.0625 22.09375 -0.132812 17.75 -2.53125 C 13.40625 -4.9375 10.046875 -8.296875 7.671875 -12.609375 C 5.304688 -16.921875 4.125 -21.796875 4.125 -27.234375 C 4.125 -33.160156 5.34375 -38.367188 7.78125 -42.859375 C 10.21875 -47.347656 13.429688 -50.789062 17.421875 -53.1875 C 21.421875 -55.59375 25.710938 -56.796875 30.296875 -56.796875 C 34.816406 -56.796875 39.054688 -55.628906 43.015625 -53.296875 C 46.972656 -50.960938 50.148438 -47.742188 52.546875 -43.640625 C 54.953125 -39.546875 56.191406 -34.957031 56.265625 -29.875 Z M 30.296875 -47.46875 C 26.347656 -47.46875 22.925781 -46.351562 20.03125 -44.125 C 17.132812 -41.90625 15.222656 -38.460938 14.296875 -33.796875 L 45.5625 -33.796875 L 45.5625 -34.640625 C 45.207031 -38.390625 43.53125 -41.460938 40.53125 -43.859375 C 37.53125 -46.265625 34.117188 -47.46875 30.296875 -47.46875 Z M 30.296875 -47.46875 "/></g></g></g><g fill="#03306b" fill-opacity="1"><g transform="translate(275.683861, 541.193334)"><g><path d="M 47.890625 -7.84375 C 48.671875 -6.988281 49.0625 -6 49.0625 -4.875 C 49.0625 -3.457031 48.53125 -2.238281 47.46875 -1.21875 C 46.40625 -0.195312 45.238281 0.3125 43.96875 0.3125 C 42.34375 0.3125 40.96875 -0.425781 39.84375 -1.90625 L 25.640625 -19.8125 L 11.65625 -1.90625 C 11.15625 -1.195312 10.550781 -0.664062 9.84375 -0.3125 C 9.144531 0.0390625 8.40625 0.21875 7.625 0.21875 C 6.425781 0.21875 5.3125 -0.222656 4.28125 -1.109375 C 3.257812 -1.992188 2.75 -3.035156 2.75 -4.234375 C 2.75 -5.503906 3.140625 -6.566406 3.921875 -7.421875 L 19.8125 -27.234375 L 3.5 -47.78125 C 2.789062 -48.695312 2.4375 -49.6875 2.4375 -50.75 C 2.4375 -52.164062 2.945312 -53.367188 3.96875 -54.359375 C 5 -55.347656 6.179688 -55.84375 7.515625 -55.84375 C 9.210938 -55.84375 10.59375 -55.132812 11.65625 -53.71875 L 26.171875 -35.390625 L 39.84375 -53.609375 C 40.894531 -55.097656 42.234375 -55.84375 43.859375 -55.84375 C 45.203125 -55.84375 46.332031 -55.398438 47.25 -54.515625 C 48.164062 -53.628906 48.625 -52.585938 48.625 -51.390625 C 48.625 -50.046875 48.238281 -48.953125 47.46875 -48.109375 L 31.78125 -28.296875 Z M 47.890625 -7.84375 "/></g></g></g><g fill="#03306b" fill-opacity="1"><g transform="translate(326.646043, 541.193334)"><g><path d="M 52.546875 -56.265625 C 54.035156 -56.265625 55.253906 -55.785156 56.203125 -54.828125 C 57.160156 -53.878906 57.640625 -52.625 57.640625 -51.0625 L 57.640625 -5.078125 C 57.640625 -3.671875 57.160156 -2.472656 56.203125 -1.484375 C 55.253906 -0.492188 54.035156 0 52.546875 0 C 51.066406 0 49.867188 -0.472656 48.953125 -1.421875 C 48.035156 -2.378906 47.578125 -3.597656 47.578125 -5.078125 L 47.578125 -7.84375 C 45.734375 -5.363281 43.222656 -3.257812 40.046875 -1.53125 C 36.867188 0.195312 33.441406 1.0625 29.765625 1.0625 C 24.960938 1.0625 20.601562 -0.171875 16.6875 -2.640625 C 12.769531 -5.117188 9.695312 -8.5625 7.46875 -12.96875 C 5.238281 -17.382812 4.125 -22.347656 4.125 -27.859375 C 4.125 -33.367188 5.238281 -38.332031 7.46875 -42.75 C 9.695312 -47.164062 12.753906 -50.609375 16.640625 -53.078125 C 20.523438 -55.554688 24.796875 -56.796875 29.453125 -56.796875 C 33.203125 -56.796875 36.679688 -56.015625 39.890625 -54.453125 C 43.109375 -52.898438 45.671875 -50.925781 47.578125 -48.53125 L 47.578125 -51.0625 C 47.578125 -52.550781 48.035156 -53.789062 48.953125 -54.78125 C 49.867188 -55.769531 51.066406 -56.265625 52.546875 -56.265625 Z M 30.9375 -8.265625 C 34.257812 -8.265625 37.207031 -9.109375 39.78125 -10.796875 C 42.363281 -12.492188 44.378906 -14.828125 45.828125 -17.796875 C 47.273438 -20.765625 48 -24.117188 48 -27.859375 C 48 -31.535156 47.273438 -34.859375 45.828125 -37.828125 C 44.378906 -40.796875 42.363281 -43.144531 39.78125 -44.875 C 37.207031 -46.601562 34.257812 -47.46875 30.9375 -47.46875 C 27.613281 -47.46875 24.660156 -46.617188 22.078125 -44.921875 C 19.503906 -43.222656 17.492188 -40.890625 16.046875 -37.921875 C 14.597656 -34.960938 13.875 -31.609375 13.875 -27.859375 C 13.875 -24.117188 14.597656 -20.765625 16.046875 -17.796875 C 17.492188 -14.828125 19.503906 -12.492188 22.078125 -10.796875 C 24.660156 -9.109375 27.613281 -8.265625 30.9375 -8.265625 Z M 17.59375 -62.09375 C 16.175781 -62.09375 15.0625 -62.617188 14.25 -63.671875 C 13.4375 -64.734375 13.066406 -66.253906 13.140625 -68.234375 C 13.347656 -70.640625 14.472656 -72.65625 16.515625 -74.28125 C 18.566406 -75.90625 21.328125 -76.71875 24.796875 -76.71875 C 26.347656 -76.71875 27.828125 -76.378906 29.234375 -75.703125 C 30.648438 -75.035156 32.347656 -74.066406 34.328125 -72.796875 C 35.597656 -71.953125 36.65625 -71.296875 37.5 -70.828125 C 38.351562 -70.367188 39.132812 -70.140625 39.84375 -70.140625 C 40.6875 -70.140625 41.351562 -70.40625 41.84375 -70.9375 C 42.34375 -71.46875 42.554688 -72.191406 42.484375 -73.109375 C 42.410156 -73.328125 42.375 -73.679688 42.375 -74.171875 C 42.375 -75.085938 42.691406 -75.828125 43.328125 -76.390625 C 43.960938 -76.960938 44.742188 -77.25 45.671875 -77.25 C 47.078125 -77.25 48.1875 -76.71875 49 -75.65625 C 49.8125 -74.59375 50.179688 -73.144531 50.109375 -71.3125 C 49.898438 -68.976562 48.894531 -66.945312 47.09375 -65.21875 C 45.289062 -63.488281 42.695312 -62.625 39.3125 -62.625 C 38.039062 -62.625 36.710938 -62.921875 35.328125 -63.515625 C 33.953125 -64.117188 32.242188 -65.019531 30.203125 -66.21875 C 28.640625 -67.144531 27.347656 -67.851562 26.328125 -68.34375 C 25.304688 -68.84375 24.40625 -69.09375 23.625 -69.09375 C 22.78125 -69.09375 22.09375 -68.84375 21.5625 -68.34375 C 21.03125 -67.851562 20.765625 -67.113281 20.765625 -66.125 C 20.835938 -65.90625 20.875 -65.617188 20.875 -65.265625 C 20.875 -64.285156 20.554688 -63.507812 19.921875 -62.9375 C 19.285156 -62.375 18.507812 -62.09375 17.59375 -62.09375 Z M 17.59375 -62.09375 "/></g></g></g><g fill="#03306b" fill-opacity="1"><g transform="translate(391.1699, 541.193334)"><g><path d="M 60.078125 -27.765625 C 60.078125 -22.253906 58.835938 -17.304688 56.359375 -12.921875 C 53.890625 -8.546875 50.519531 -5.117188 46.25 -2.640625 C 41.976562 -0.171875 37.265625 1.0625 32.109375 1.0625 C 26.953125 1.0625 22.234375 -0.171875 17.953125 -2.640625 C 13.679688 -5.117188 10.304688 -8.546875 7.828125 -12.921875 C 5.359375 -17.304688 4.125 -22.253906 4.125 -27.765625 C 4.125 -33.273438 5.359375 -38.253906 7.828125 -42.703125 C 10.304688 -47.148438 13.679688 -50.609375 17.953125 -53.078125 C 22.234375 -55.554688 26.953125 -56.796875 32.109375 -56.796875 C 37.265625 -56.796875 41.976562 -55.554688 46.25 -53.078125 C 50.519531 -50.609375 53.890625 -47.148438 56.359375 -42.703125 C 58.835938 -38.253906 60.078125 -33.273438 60.078125 -27.765625 Z M 50.015625 -27.765625 C 50.015625 -31.578125 49.21875 -34.984375 47.625 -37.984375 C 46.03125 -40.984375 43.875 -43.3125 41.15625 -44.96875 C 38.4375 -46.632812 35.421875 -47.46875 32.109375 -47.46875 C 28.785156 -47.46875 25.765625 -46.632812 23.046875 -44.96875 C 20.328125 -43.3125 18.171875 -40.984375 16.578125 -37.984375 C 14.992188 -34.984375 14.203125 -31.578125 14.203125 -27.765625 C 14.203125 -24.015625 14.992188 -20.65625 16.578125 -17.6875 C 18.171875 -14.726562 20.328125 -12.414062 23.046875 -10.75 C 25.765625 -9.09375 28.785156 -8.265625 32.109375 -8.265625 C 35.421875 -8.265625 38.4375 -9.09375 41.15625 -10.75 C 43.875 -12.414062 46.03125 -14.726562 47.625 -17.6875 C 49.21875 -20.65625 50.015625 -24.015625 50.015625 -27.765625 Z M 50.015625 -27.765625 "/></g></g></g><g fill="#03306b" fill-opacity="1"><g transform="translate(454.849795, 541.193334)"><g/></g></g><g fill="#03306b" fill-opacity="1"><g transform="translate(37.368864, 640.167831)"><g><path d="M 17.0625 -5.078125 C 17.0625 -3.671875 16.582031 -2.472656 15.625 -1.484375 C 14.675781 -0.492188 13.457031 0 11.96875 0 C 10.5625 0 9.378906 -0.492188 8.421875 -1.484375 C 7.472656 -2.472656 7 -3.671875 7 -5.078125 L 7 -50.96875 C 7 -52.375 7.472656 -53.570312 8.421875 -54.5625 C 9.378906 -55.550781 10.5625 -56.046875 11.96875 -56.046875 C 13.457031 -56.046875 14.675781 -55.550781 15.625 -54.5625 C 16.582031 -53.570312 17.0625 -52.375 17.0625 -50.96875 Z M 11.96875 -63.046875 C 9.914062 -63.046875 8.445312 -63.414062 7.5625 -64.15625 C 6.6875 -64.894531 6.25 -66.078125 6.25 -67.703125 L 6.25 -69.40625 C 6.25 -71.09375 6.722656 -72.289062 7.671875 -73 C 8.628906 -73.707031 10.097656 -74.0625 12.078125 -74.0625 C 14.046875 -74.0625 15.472656 -73.691406 16.359375 -72.953125 C 17.242188 -72.210938 17.6875 -71.03125 17.6875 -69.40625 L 17.6875 -67.703125 C 17.6875 -66.003906 17.226562 -64.800781 16.3125 -64.09375 C 15.394531 -63.394531 13.945312 -63.046875 11.96875 -63.046875 Z M 11.96875 -63.046875 "/></g></g></g><g fill="#03306b" fill-opacity="1"><g transform="translate(63.644769, 640.167831)"><g><path d="M 35.8125 -56.796875 C 48.53125 -56.796875 54.890625 -49.164062 54.890625 -33.90625 L 54.890625 -5.078125 C 54.890625 -3.671875 54.410156 -2.472656 53.453125 -1.484375 C 52.492188 -0.492188 51.273438 0 49.796875 0 C 48.378906 0 47.191406 -0.492188 46.234375 -1.484375 C 45.285156 -2.472656 44.8125 -3.671875 44.8125 -5.078125 L 44.8125 -33.796875 C 44.8125 -37.960938 43.859375 -41.28125 41.953125 -43.75 C 40.046875 -46.226562 36.941406 -47.46875 32.640625 -47.46875 C 29.804688 -47.46875 27.242188 -46.847656 24.953125 -45.609375 C 22.660156 -44.378906 20.859375 -42.71875 19.546875 -40.625 C 18.242188 -38.539062 17.59375 -36.265625 17.59375 -33.796875 L 17.59375 -5.078125 C 17.59375 -3.671875 17.113281 -2.472656 16.15625 -1.484375 C 15.207031 -0.492188 13.988281 0 12.5 0 C 11.019531 0 9.816406 -0.472656 8.890625 -1.421875 C 7.972656 -2.378906 7.515625 -3.597656 7.515625 -5.078125 L 7.515625 -50.4375 C 7.515625 -51.84375 7.992188 -53.039062 8.953125 -54.03125 C 9.910156 -55.019531 11.09375 -55.515625 12.5 -55.515625 C 13.988281 -55.515625 15.207031 -55.019531 16.15625 -54.03125 C 17.113281 -53.039062 17.59375 -51.84375 17.59375 -50.4375 L 17.59375 -46.71875 C 19.425781 -49.550781 21.984375 -51.9375 25.265625 -53.875 C 28.554688 -55.820312 32.070312 -56.796875 35.8125 -56.796875 Z M 35.8125 -56.796875 "/></g></g></g><g fill="#03306b" fill-opacity="1"><g transform="translate(128.274794, 640.167831)"><g><path d="M 31.25 -69.296875 C 28.925781 -69.296875 27.210938 -68.585938 26.109375 -67.171875 C 25.015625 -65.765625 24.46875 -64.035156 24.46875 -61.984375 L 24.46875 -54.5625 L 34.96875 -54.5625 C 36.375 -54.5625 37.519531 -54.117188 38.40625 -53.234375 C 39.289062 -52.359375 39.734375 -51.25 39.734375 -49.90625 C 39.734375 -48.5625 39.289062 -47.460938 38.40625 -46.609375 C 37.519531 -45.765625 36.375 -45.34375 34.96875 -45.34375 L 24.46875 -45.34375 L 24.46875 -5.078125 C 24.46875 -3.671875 23.988281 -2.472656 23.03125 -1.484375 C 22.082031 -0.492188 20.867188 0 19.390625 0 C 17.972656 0 16.785156 -0.492188 15.828125 -1.484375 C 14.878906 -2.472656 14.40625 -3.671875 14.40625 -5.078125 L 14.40625 -45.34375 L 7.84375 -45.34375 C 6.5 -45.34375 5.367188 -45.765625 4.453125 -46.609375 C 3.535156 -47.460938 3.078125 -48.5625 3.078125 -49.90625 C 3.078125 -51.25 3.535156 -52.359375 4.453125 -53.234375 C 5.367188 -54.117188 6.5 -54.5625 7.84375 -54.5625 L 14.40625 -54.5625 L 14.40625 -61.984375 C 14.40625 -66.929688 15.992188 -70.867188 19.171875 -73.796875 C 22.359375 -76.722656 26.847656 -78.1875 32.640625 -78.1875 C 35.035156 -78.1875 37.148438 -77.742188 38.984375 -76.859375 C 40.828125 -75.984375 41.75 -74.660156 41.75 -72.890625 C 41.75 -71.546875 41.34375 -70.429688 40.53125 -69.546875 C 39.71875 -68.671875 38.742188 -68.234375 37.609375 -68.234375 C 37.328125 -68.234375 36.550781 -68.375 35.28125 -68.65625 C 33.726562 -69.082031 32.382812 -69.296875 31.25 -69.296875 Z M 31.25 -69.296875 "/></g></g></g><g fill="#03306b" fill-opacity="1"><g transform="translate(171.82065, 640.167831)"><g><path d="M 52.546875 -56.265625 C 54.035156 -56.265625 55.253906 -55.785156 56.203125 -54.828125 C 57.160156 -53.878906 57.640625 -52.625 57.640625 -51.0625 L 57.640625 -5.078125 C 57.640625 -3.671875 57.160156 -2.472656 56.203125 -1.484375 C 55.253906 -0.492188 54.035156 0 52.546875 0 C 51.066406 0 49.867188 -0.472656 48.953125 -1.421875 C 48.035156 -2.378906 47.578125 -3.597656 47.578125 -5.078125 L 47.578125 -7.84375 C 45.734375 -5.363281 43.222656 -3.257812 40.046875 -1.53125 C 36.867188 0.195312 33.441406 1.0625 29.765625 1.0625 C 24.960938 1.0625 20.601562 -0.171875 16.6875 -2.640625 C 12.769531 -5.117188 9.695312 -8.5625 7.46875 -12.96875 C 5.238281 -17.382812 4.125 -22.347656 4.125 -27.859375 C 4.125 -33.367188 5.238281 -38.332031 7.46875 -42.75 C 9.695312 -47.164062 12.753906 -50.609375 16.640625 -53.078125 C 20.523438 -55.554688 24.796875 -56.796875 29.453125 -56.796875 C 33.203125 -56.796875 36.679688 -56.015625 39.890625 -54.453125 C 43.109375 -52.898438 45.671875 -50.925781 47.578125 -48.53125 L 47.578125 -51.0625 C 47.578125 -52.550781 48.035156 -53.789062 48.953125 -54.78125 C 49.867188 -55.769531 51.066406 -56.265625 52.546875 -56.265625 Z M 30.9375 -8.265625 C 34.257812 -8.265625 37.207031 -9.109375 39.78125 -10.796875 C 42.363281 -12.492188 44.378906 -14.828125 45.828125 -17.796875 C 47.273438 -20.765625 48 -24.117188 48 -27.859375 C 48 -31.535156 47.273438 -34.859375 45.828125 -37.828125 C 44.378906 -40.796875 42.363281 -43.144531 39.78125 -44.875 C 37.207031 -46.601562 34.257812 -47.46875 30.9375 -47.46875 C 27.613281 -47.46875 24.660156 -46.617188 22.078125 -44.921875 C 19.503906 -43.222656 17.492188 -40.890625 16.046875 -37.921875 C 14.597656 -34.960938 13.875 -31.609375 13.875 -27.859375 C 13.875 -24.117188 14.597656 -20.765625 16.046875 -17.796875 C 17.492188 -14.828125 19.503906 -12.492188 22.078125 -10.796875 C 24.660156 -9.109375 27.613281 -8.265625 30.9375 -8.265625 Z M 44.171875 -67.390625 C 44.597656 -66.828125 44.878906 -66.367188 45.015625 -66.015625 C 45.160156 -65.660156 45.234375 -65.238281 45.234375 -64.75 C 45.234375 -64.113281 44.984375 -63.582031 44.484375 -63.15625 C 43.992188 -62.726562 43.363281 -62.515625 42.59375 -62.515625 C 41.664062 -62.515625 40.988281 -62.640625 40.5625 -62.890625 C 40.144531 -63.140625 39.441406 -63.6875 38.453125 -64.53125 L 31.671875 -70.25 L 24.78125 -64.53125 C 24.570312 -64.320312 24.203125 -64.003906 23.671875 -63.578125 C 23.140625 -63.148438 22.644531 -62.847656 22.1875 -62.671875 C 21.726562 -62.492188 21.179688 -62.40625 20.546875 -62.40625 C 19.835938 -62.40625 19.234375 -62.632812 18.734375 -63.09375 C 18.242188 -63.5625 18 -64.078125 18 -64.640625 C 18 -65.203125 18.070312 -65.660156 18.21875 -66.015625 C 18.363281 -66.367188 18.644531 -66.789062 19.0625 -67.28125 L 25.3125 -74.703125 C 26.582031 -76.398438 28.347656 -77.25 30.609375 -77.25 L 33.46875 -77.25 C 34.601562 -77.25 35.523438 -77.070312 36.234375 -76.71875 C 36.941406 -76.363281 37.613281 -75.691406 38.25 -74.703125 Z M 44.171875 -67.390625 "/></g></g></g><g fill="#03306b" fill-opacity="1"><g transform="translate(239.099433, 640.167831)"><g><path d="M 35.8125 -56.796875 C 48.53125 -56.796875 54.890625 -49.164062 54.890625 -33.90625 L 54.890625 -5.078125 C 54.890625 -3.671875 54.410156 -2.472656 53.453125 -1.484375 C 52.492188 -0.492188 51.273438 0 49.796875 0 C 48.378906 0 47.191406 -0.492188 46.234375 -1.484375 C 45.285156 -2.472656 44.8125 -3.671875 44.8125 -5.078125 L 44.8125 -33.796875 C 44.8125 -37.960938 43.859375 -41.28125 41.953125 -43.75 C 40.046875 -46.226562 36.941406 -47.46875 32.640625 -47.46875 C 29.804688 -47.46875 27.242188 -46.847656 24.953125 -45.609375 C 22.660156 -44.378906 20.859375 -42.71875 19.546875 -40.625 C 18.242188 -38.539062 17.59375 -36.265625 17.59375 -33.796875 L 17.59375 -5.078125 C 17.59375 -3.671875 17.113281 -2.472656 16.15625 -1.484375 C 15.207031 -0.492188 13.988281 0 12.5 0 C 11.019531 0 9.816406 -0.472656 8.890625 -1.421875 C 7.972656 -2.378906 7.515625 -3.597656 7.515625 -5.078125 L 7.515625 -50.4375 C 7.515625 -51.84375 7.992188 -53.039062 8.953125 -54.03125 C 9.910156 -55.019531 11.09375 -55.515625 12.5 -55.515625 C 13.988281 -55.515625 15.207031 -55.019531 16.15625 -54.03125 C 17.113281 -53.039062 17.59375 -51.84375 17.59375 -50.4375 L 17.59375 -46.71875 C 19.425781 -49.550781 21.984375 -51.9375 25.265625 -53.875 C 28.554688 -55.820312 32.070312 -56.796875 35.8125 -56.796875 Z M 35.8125 -56.796875 "/></g></g></g><g fill="#03306b" fill-opacity="1"><g transform="translate(303.729447, 640.167831)"><g><path d="M 31.6875 -56.796875 C 37.257812 -56.796875 41.898438 -55.910156 45.609375 -54.140625 C 49.316406 -52.378906 51.171875 -50.117188 51.171875 -47.359375 C 51.171875 -46.160156 50.78125 -45.082031 50 -44.125 C 49.226562 -43.175781 48.242188 -42.703125 47.046875 -42.703125 C 46.128906 -42.703125 45.40625 -42.84375 44.875 -43.125 C 44.34375 -43.40625 43.617188 -43.863281 42.703125 -44.5 C 42.273438 -44.925781 41.601562 -45.421875 40.6875 -45.984375 C 39.84375 -46.410156 38.640625 -46.765625 37.078125 -47.046875 C 35.523438 -47.328125 34.113281 -47.46875 32.84375 -47.46875 C 29.164062 -47.46875 25.914062 -46.617188 23.09375 -44.921875 C 20.269531 -43.222656 18.082031 -40.875 16.53125 -37.875 C 14.976562 -34.875 14.203125 -31.535156 14.203125 -27.859375 C 14.203125 -24.117188 14.957031 -20.765625 16.46875 -17.796875 C 17.988281 -14.828125 20.125 -12.492188 22.875 -10.796875 C 25.632812 -9.109375 28.78125 -8.265625 32.3125 -8.265625 C 35.988281 -8.265625 38.957031 -8.828125 41.21875 -9.953125 C 41.707031 -10.242188 42.378906 -10.707031 43.234375 -11.34375 C 43.929688 -11.90625 44.546875 -12.328125 45.078125 -12.609375 C 45.609375 -12.890625 46.265625 -13.03125 47.046875 -13.03125 C 48.453125 -13.03125 49.5625 -12.585938 50.375 -11.703125 C 51.1875 -10.828125 51.59375 -9.679688 51.59375 -8.265625 C 51.59375 -6.785156 50.65625 -5.316406 48.78125 -3.859375 C 46.914062 -2.410156 44.410156 -1.226562 41.265625 -0.3125 C 38.117188 0.601562 34.75 1.0625 31.15625 1.0625 C 25.78125 1.0625 21.046875 -0.191406 16.953125 -2.703125 C 12.859375 -5.210938 9.695312 -8.671875 7.46875 -13.078125 C 5.238281 -17.492188 4.125 -22.421875 4.125 -27.859375 C 4.125 -33.304688 5.289062 -38.234375 7.625 -42.640625 C 9.957031 -47.054688 13.207031 -50.519531 17.375 -53.03125 C 21.539062 -55.539062 26.3125 -56.796875 31.6875 -56.796875 Z M 31.6875 -56.796875 "/></g></g></g><g fill="#03306b" fill-opacity="1"><g transform="translate(360.413177, 640.167831)"><g><path d="M 17.0625 -5.078125 C 17.0625 -3.671875 16.582031 -2.472656 15.625 -1.484375 C 14.675781 -0.492188 13.457031 0 11.96875 0 C 10.5625 0 9.378906 -0.492188 8.421875 -1.484375 C 7.472656 -2.472656 7 -3.671875 7 -5.078125 L 7 -50.96875 C 7 -52.375 7.472656 -53.570312 8.421875 -54.5625 C 9.378906 -55.550781 10.5625 -56.046875 11.96875 -56.046875 C 13.457031 -56.046875 14.675781 -55.550781 15.625 -54.5625 C 16.582031 -53.570312 17.0625 -52.375 17.0625 -50.96875 Z M 11.96875 -63.046875 C 9.914062 -63.046875 8.445312 -63.414062 7.5625 -64.15625 C 6.6875 -64.894531 6.25 -66.078125 6.25 -67.703125 L 6.25 -69.40625 C 6.25 -71.09375 6.722656 -72.289062 7.671875 -73 C 8.628906 -73.707031 10.097656 -74.0625 12.078125 -74.0625 C 14.046875 -74.0625 15.472656 -73.691406 16.359375 -72.953125 C 17.242188 -72.210938 17.6875 -71.03125 17.6875 -69.40625 L 17.6875 -67.703125 C 17.6875 -66.003906 17.226562 -64.800781 16.3125 -64.09375 C 15.394531 -63.394531 13.945312 -63.046875 11.96875 -63.046875 Z M 11.96875 -63.046875 "/></g></g></g><g fill="#03306b" fill-opacity="1"><g transform="translate(386.68908, 640.167831)"><g><path d="M 52.546875 -56.265625 C 54.035156 -56.265625 55.253906 -55.785156 56.203125 -54.828125 C 57.160156 -53.878906 57.640625 -52.625 57.640625 -51.0625 L 57.640625 -5.078125 C 57.640625 -3.671875 57.160156 -2.472656 56.203125 -1.484375 C 55.253906 -0.492188 54.035156 0 52.546875 0 C 51.066406 0 49.867188 -0.472656 48.953125 -1.421875 C 48.035156 -2.378906 47.578125 -3.597656 47.578125 -5.078125 L 47.578125 -7.84375 C 45.734375 -5.363281 43.222656 -3.257812 40.046875 -1.53125 C 36.867188 0.195312 33.441406 1.0625 29.765625 1.0625 C 24.960938 1.0625 20.601562 -0.171875 16.6875 -2.640625 C 12.769531 -5.117188 9.695312 -8.5625 7.46875 -12.96875 C 5.238281 -17.382812 4.125 -22.347656 4.125 -27.859375 C 4.125 -33.367188 5.238281 -38.332031 7.46875 -42.75 C 9.695312 -47.164062 12.753906 -50.609375 16.640625 -53.078125 C 20.523438 -55.554688 24.796875 -56.796875 29.453125 -56.796875 C 33.203125 -56.796875 36.679688 -56.015625 39.890625 -54.453125 C 43.109375 -52.898438 45.671875 -50.925781 47.578125 -48.53125 L 47.578125 -51.0625 C 47.578125 -52.550781 48.035156 -53.789062 48.953125 -54.78125 C 49.867188 -55.769531 51.066406 -56.265625 52.546875 -56.265625 Z M 30.9375 -8.265625 C 34.257812 -8.265625 37.207031 -9.109375 39.78125 -10.796875 C 42.363281 -12.492188 44.378906 -14.828125 45.828125 -17.796875 C 47.273438 -20.765625 48 -24.117188 48 -27.859375 C 48 -31.535156 47.273438 -34.859375 45.828125 -37.828125 C 44.378906 -40.796875 42.363281 -43.144531 39.78125 -44.875 C 37.207031 -46.601562 34.257812 -47.46875 30.9375 -47.46875 C 27.613281 -47.46875 24.660156 -46.617188 22.078125 -44.921875 C 19.503906 -43.222656 17.492188 -40.890625 16.046875 -37.921875 C 14.597656 -34.960938 13.875 -31.609375 13.875 -27.859375 C 13.875 -24.117188 14.597656 -20.765625 16.046875 -17.796875 C 17.492188 -14.828125 19.503906 -12.492188 22.078125 -10.796875 C 24.660156 -9.109375 27.613281 -8.265625 30.9375 -8.265625 Z M 30.9375 -8.265625 "/></g></g></g></svg>