<svg xmlns="http://www.w3.org/2000/svg" xmlns:xlink="http://www.w3.org/1999/xlink" width="1080" zoomAndPan="magnify" viewBox="0 0 810 1012.49997" height="1350" preserveAspectRatio="xMidYMid meet" version="1.0"><defs><clipPath id="b54cd74b18"><path d="M 49.175781 473 L 474 473 L 474 865 L 49.175781 865 Z M 49.175781 473 " clip-rule="nonzero"/></clipPath><clipPath id="1df8613c53"><path d="M 369 440 L 760.574219 440 L 760.574219 865 L 369 865 Z M 369 440 " clip-rule="nonzero"/></clipPath><clipPath id="f0ea24aaaa"><path d="M 335 146.898438 L 760.574219 146.898438 L 760.574219 539 L 335 539 Z M 335 146.898438 " clip-rule="nonzero"/></clipPath><clipPath id="36dc47bdcc"><path d="M 50 146.898438 L 449 146.898438 L 449 569 L 50 569 Z M 50 146.898438 " clip-rule="nonzero"/></clipPath></defs><g clip-path="url(#b54cd74b18)"><path fill="#ff004b" d="M 466.15625 701.847656 C 433.488281 759.285156 324.195312 837.414062 311.316406 846.148438 C 298.4375 854.882812 285.078125 859.367188 270.207031 861.585938 C 255.328125 863.800781 90.207031 868.546875 74.234375 860.03125 C 74.234375 860.03125 60.511719 852.519531 55.851562 838.539062 C 51.191406 824.554688 42.648438 667.390625 57.664062 633.703125 C 72.679688 600.015625 195.585938 488.8125 211.117188 480.367188 C 226.652344 471.925781 260.078125 468.457031 282.375 489.722656 C 302.527344 508.945312 305.933594 539.183594 301.273438 561.972656 C 296.613281 584.761719 201.117188 671.835938 199.308594 676.753906 C 197.496094 681.675781 190.503906 727.089844 190.503906 727.089844 C 190.503906 727.089844 242.441406 719.351562 255.324219 713.007812 C 268.722656 706.40625 349.425781 620.496094 370.394531 611.691406 C 391.367188 602.886719 503.496094 589.042969 466.15625 701.847656 Z M 466.15625 701.847656 " fill-opacity="1" fill-rule="evenodd"/></g><g clip-path="url(#1df8613c53)"><path fill="#b30082" d="M 597.425781 447.820312 C 654.851562 480.496094 732.957031 589.824219 741.6875 602.703125 C 750.421875 615.585938 754.90625 628.949219 757.121094 643.824219 C 759.335938 658.710938 764.078125 823.875 755.566406 839.855469 C 755.566406 839.855469 748.058594 853.578125 734.078125 858.238281 C 720.101562 862.902344 562.980469 871.445312 529.304688 856.425781 C 495.625 841.40625 384.453125 718.46875 376.011719 702.929688 C 367.570312 687.394531 364.101562 653.957031 385.363281 631.652344 C 404.582031 611.496094 434.808594 608.085938 457.59375 612.75 C 480.375 617.410156 567.421875 712.933594 572.34375 714.746094 C 577.261719 716.558594 622.664062 723.550781 622.664062 723.550781 C 622.664062 723.550781 614.929688 671.597656 608.585938 658.714844 C 601.984375 645.308594 516.101562 564.582031 507.296875 543.609375 C 498.496094 522.632812 484.65625 410.46875 597.425781 447.820312 Z M 597.425781 447.820312 " fill-opacity="1" fill-rule="evenodd"/></g><g clip-path="url(#f0ea24aaaa)"><path fill="#ffa500" d="M 343.472656 309.96875 C 376.140625 252.53125 485.433594 174.398438 498.3125 165.664062 C 511.191406 156.933594 524.550781 152.445312 539.421875 150.230469 C 554.300781 148.011719 719.421875 143.269531 735.394531 151.785156 C 735.394531 151.785156 749.117188 159.292969 753.777344 173.277344 C 758.4375 187.261719 766.976562 344.425781 751.964844 378.113281 C 736.949219 411.796875 614.042969 523.003906 598.511719 531.445312 C 582.976562 539.890625 549.546875 543.359375 527.253906 522.089844 C 507.097656 502.871094 503.695312 472.632812 508.355469 449.84375 C 513.015625 427.054688 608.507812 339.980469 610.320312 335.058594 C 612.132812 330.140625 619.125 284.726562 619.125 284.726562 C 619.125 284.726562 567.183594 292.460938 554.304688 298.804688 C 540.902344 305.410156 460.203125 391.320312 439.230469 400.125 C 418.261719 408.929688 306.132812 422.769531 343.472656 309.96875 Z M 343.472656 309.96875 " fill-opacity="1" fill-rule="evenodd"/></g><g clip-path="url(#36dc47bdcc)"><path fill="#7dcfba" d="M 234.609375 563.460938 C 175.242188 534.464844 90.402344 430.28125 80.878906 417.972656 C 71.351562 405.667969 66.035156 392.617188 62.886719 377.910156 C 59.738281 363.191406 44.601562 198.65625 52.089844 182.171875 C 52.089844 182.171875 58.71875 168 72.378906 162.46875 C 86.035156 156.933594 242.304688 138.503906 276.863281 151.371094 C 311.417969 164.238281 430.113281 279.929688 439.515625 294.902344 C 448.917969 309.878906 454.484375 343.03125 434.671875 366.628906 C 416.761719 387.957031 386.808594 393.261719 363.777344 390.046875 C 340.746094 386.832031 247.855469 296.984375 242.832031 295.484375 C 237.808594 293.984375 192.054688 289.867188 192.054688 289.867188 C 192.054688 289.867188 203.046875 341.230469 210.1875 353.6875 C 217.621094 366.652344 308.417969 441.804688 318.523438 462.183594 C 328.628906 482.5625 349.507812 593.628906 234.609375 563.460938 Z M 234.609375 563.460938 " fill-opacity="1" fill-rule="evenodd"/></g><path fill="#ff004b" d="M 199.308594 676.753906 C 197.496094 681.675781 42.652344 667.390625 57.667969 633.703125 C 72.679688 600.015625 195.585938 488.8125 211.121094 480.367188 C 226.652344 471.925781 260.082031 468.457031 282.375 489.722656 C 302.53125 508.945312 305.933594 539.183594 301.277344 561.972656 C 296.617188 584.761719 201.121094 671.832031 199.308594 676.753906 Z M 199.308594 676.753906 " fill-opacity="1" fill-rule="evenodd"/></svg>