<svg xmlns="http://www.w3.org/2000/svg" xmlns:xlink="http://www.w3.org/1999/xlink" width="832" zoomAndPan="magnify" viewBox="0 0 624 281.999989" height="376" preserveAspectRatio="xMidYMid meet" version="1.0"><defs><g/><clipPath id="929fa4a293"><path d="M 0 144 L 107 144 L 107 242.449219 L 0 242.449219 Z M 0 144 " clip-rule="nonzero"/></clipPath><clipPath id="787c8a1c44"><path d="M 80 136 L 177.75 136 L 177.75 242.449219 L 80 242.449219 Z M 80 136 " clip-rule="nonzero"/></clipPath><clipPath id="20484ed97a"><path d="M 71 63.199219 L 177.75 63.199219 L 177.75 161 L 71 161 Z M 71 63.199219 " clip-rule="nonzero"/></clipPath><clipPath id="d509fb99ca"><path d="M 0 63.199219 L 100 63.199219 L 100 169 L 0 169 Z M 0 63.199219 " clip-rule="nonzero"/></clipPath></defs><g clip-path="url(#929fa4a293)"><path fill="#ff004b" d="M 104.1875 201.710938 C 96.023438 216.050781 68.714844 235.550781 65.496094 237.730469 C 62.28125 239.910156 58.941406 241.03125 55.226562 241.582031 C 51.507812 242.136719 10.25 243.320312 6.257812 241.195312 C 6.257812 241.195312 2.832031 239.320312 1.667969 235.828125 C 0.503906 232.339844 -1.632812 193.113281 2.121094 184.703125 C 5.871094 176.296875 36.582031 148.539062 40.460938 146.433594 C 44.34375 144.324219 52.695312 143.460938 58.265625 148.769531 C 63.300781 153.566406 64.152344 161.113281 62.988281 166.800781 C 61.824219 172.488281 37.964844 194.222656 37.511719 195.449219 C 37.058594 196.679688 35.3125 208.011719 35.3125 208.011719 C 35.3125 208.011719 48.289062 206.082031 51.507812 204.5 C 54.855469 202.851562 75.019531 181.40625 80.257812 179.210938 C 85.5 177.011719 113.515625 173.558594 104.1875 201.710938 Z M 104.1875 201.710938 " fill-opacity="1" fill-rule="evenodd"/></g><g clip-path="url(#787c8a1c44)"><path fill="#b30082" d="M 136.984375 138.308594 C 151.335938 146.464844 170.851562 173.753906 173.03125 176.96875 C 175.214844 180.183594 176.335938 183.519531 176.886719 187.230469 C 177.441406 190.945312 178.625 232.171875 176.5 236.160156 C 176.5 236.160156 174.625 239.585938 171.128906 240.746094 C 167.636719 241.910156 128.378906 244.042969 119.964844 240.296875 C 111.550781 236.546875 83.773438 205.859375 81.664062 201.984375 C 79.554688 198.105469 78.6875 189.757812 84 184.191406 C 88.800781 179.160156 96.355469 178.3125 102.046875 179.472656 C 107.738281 180.636719 129.488281 204.480469 130.71875 204.933594 C 131.949219 205.382812 143.292969 207.128906 143.292969 207.128906 C 143.292969 207.128906 141.359375 194.164062 139.773438 190.945312 C 138.125 187.601562 116.664062 167.453125 114.464844 162.21875 C 112.265625 156.980469 108.808594 128.988281 136.984375 138.308594 Z M 136.984375 138.308594 " fill-opacity="1" fill-rule="evenodd"/></g><g clip-path="url(#20484ed97a)"><path fill="#ffa500" d="M 73.53125 103.902344 C 81.695312 89.566406 109.003906 70.066406 112.222656 67.882812 C 115.4375 65.703125 118.777344 64.585938 122.492188 64.03125 C 126.210938 63.480469 167.46875 62.292969 171.460938 64.421875 C 171.460938 64.421875 174.886719 66.292969 176.050781 69.785156 C 177.214844 73.273438 179.351562 112.503906 175.597656 120.910156 C 171.847656 129.316406 141.136719 157.074219 137.257812 159.183594 C 133.375 161.289062 125.023438 162.15625 119.453125 156.847656 C 114.417969 152.050781 113.566406 144.5 114.730469 138.8125 C 115.894531 133.125 139.753906 111.394531 140.207031 110.164062 C 140.660156 108.9375 142.40625 97.601562 142.40625 97.601562 C 142.40625 97.601562 129.429688 99.53125 126.210938 101.117188 C 122.863281 102.765625 102.699219 124.207031 97.460938 126.402344 C 92.21875 128.601562 64.203125 132.058594 73.53125 103.902344 Z M 73.53125 103.902344 " fill-opacity="1" fill-rule="evenodd"/></g><g clip-path="url(#d509fb99ca)"><path fill="#7dcfba" d="M 46.332031 167.171875 C 31.496094 159.933594 10.300781 133.929688 7.917969 130.859375 C 5.539062 127.789062 4.210938 124.53125 3.425781 120.859375 C 2.636719 117.1875 -1.144531 76.117188 0.726562 72.003906 C 0.726562 72.003906 2.382812 68.46875 5.796875 67.085938 C 9.207031 65.707031 48.253906 61.105469 56.890625 64.316406 C 65.523438 67.527344 95.179688 96.402344 97.53125 100.140625 C 99.878906 103.878906 101.269531 112.152344 96.320312 118.042969 C 91.84375 123.367188 84.359375 124.691406 78.605469 123.890625 C 72.851562 123.085938 49.640625 100.660156 48.386719 100.285156 C 47.132812 99.914062 35.699219 98.886719 35.699219 98.886719 C 35.699219 98.886719 38.445312 111.703125 40.230469 114.8125 C 42.085938 118.050781 64.773438 136.808594 67.300781 141.894531 C 69.824219 146.980469 75.039062 174.703125 46.332031 167.171875 Z M 46.332031 167.171875 " fill-opacity="1" fill-rule="evenodd"/></g><path fill="#ff004b" d="M 37.511719 195.449219 C 37.058594 196.679688 -1.632812 193.113281 2.121094 184.703125 C 5.871094 176.296875 36.582031 148.539062 40.460938 146.433594 C 44.34375 144.324219 52.695312 143.460938 58.265625 148.769531 C 63.300781 153.566406 64.152344 161.113281 62.988281 166.800781 C 61.824219 172.488281 37.964844 194.222656 37.511719 195.449219 Z M 37.511719 195.449219 " fill-opacity="1" fill-rule="evenodd"/><g fill="#ffffff" fill-opacity="1"><g transform="translate(193.357775, 131.284043)"><g><path d="M 29.921875 -53.65625 C 35.191406 -53.65625 39.578125 -52.816406 43.078125 -51.140625 C 46.585938 -49.472656 48.34375 -47.335938 48.34375 -44.734375 C 48.34375 -43.609375 47.972656 -42.59375 47.234375 -41.6875 C 46.503906 -40.789062 45.570312 -40.34375 44.4375 -40.34375 C 43.570312 -40.34375 42.890625 -40.472656 42.390625 -40.734375 C 41.890625 -41.003906 41.207031 -41.441406 40.34375 -42.046875 C 39.9375 -42.441406 39.300781 -42.90625 38.4375 -43.4375 C 37.632812 -43.84375 36.5 -44.175781 35.03125 -44.4375 C 33.5625 -44.707031 32.226562 -44.84375 31.03125 -44.84375 C 27.5625 -44.84375 24.488281 -44.039062 21.8125 -42.4375 C 19.144531 -40.832031 17.078125 -38.613281 15.609375 -35.78125 C 14.140625 -32.945312 13.40625 -29.796875 13.40625 -26.328125 C 13.40625 -22.785156 14.125 -19.613281 15.5625 -16.8125 C 17 -14.007812 19.019531 -11.804688 21.625 -10.203125 C 24.226562 -8.609375 27.195312 -7.8125 30.53125 -7.8125 C 34 -7.8125 36.800781 -8.34375 38.9375 -9.40625 C 39.40625 -9.675781 40.039062 -10.109375 40.84375 -10.703125 C 41.507812 -11.242188 42.09375 -11.644531 42.59375 -11.90625 C 43.09375 -12.175781 43.707031 -12.3125 44.4375 -12.3125 C 45.769531 -12.3125 46.820312 -11.894531 47.59375 -11.0625 C 48.363281 -10.226562 48.75 -9.144531 48.75 -7.8125 C 48.75 -6.40625 47.863281 -5.015625 46.09375 -3.640625 C 44.320312 -2.273438 41.953125 -1.160156 38.984375 -0.296875 C 36.015625 0.566406 32.828125 1 29.421875 1 C 24.359375 1 19.890625 -0.179688 16.015625 -2.546875 C 12.140625 -4.921875 9.148438 -8.191406 7.046875 -12.359375 C 4.953125 -16.535156 3.90625 -21.191406 3.90625 -26.328125 C 3.90625 -31.460938 5.003906 -36.113281 7.203125 -40.28125 C 9.410156 -44.457031 12.484375 -47.726562 16.421875 -50.09375 C 20.359375 -52.46875 24.859375 -53.65625 29.921875 -53.65625 Z M 29.921875 -53.65625 "/></g></g></g><g fill="#ffffff" fill-opacity="1"><g transform="translate(244.300816, 131.284043)"><g><path d="M 56.75 -26.21875 C 56.75 -21.019531 55.582031 -16.347656 53.25 -12.203125 C 50.914062 -8.066406 47.726562 -4.832031 43.6875 -2.5 C 39.65625 -0.164062 35.203125 1 30.328125 1 C 25.453125 1 20.992188 -0.164062 16.953125 -2.5 C 12.921875 -4.832031 9.738281 -8.066406 7.40625 -12.203125 C 5.070312 -16.347656 3.90625 -21.019531 3.90625 -26.21875 C 3.90625 -31.425781 5.070312 -36.128906 7.40625 -40.328125 C 9.738281 -44.535156 12.921875 -47.804688 16.953125 -50.140625 C 20.992188 -52.484375 25.453125 -53.65625 30.328125 -53.65625 C 35.203125 -53.65625 39.65625 -52.484375 43.6875 -50.140625 C 47.726562 -47.804688 50.914062 -44.535156 53.25 -40.328125 C 55.582031 -36.128906 56.75 -31.425781 56.75 -26.21875 Z M 47.25 -26.21875 C 47.25 -29.820312 46.492188 -33.039062 44.984375 -35.875 C 43.484375 -38.71875 41.445312 -40.921875 38.875 -42.484375 C 36.3125 -44.054688 33.460938 -44.84375 30.328125 -44.84375 C 27.191406 -44.84375 24.335938 -44.054688 21.765625 -42.484375 C 19.203125 -40.921875 17.164062 -38.71875 15.65625 -35.875 C 14.15625 -33.039062 13.40625 -29.820312 13.40625 -26.21875 C 13.40625 -22.6875 14.15625 -19.519531 15.65625 -16.71875 C 17.164062 -13.914062 19.203125 -11.726562 21.765625 -10.15625 C 24.335938 -8.59375 27.191406 -7.8125 30.328125 -7.8125 C 33.460938 -7.8125 36.3125 -8.59375 38.875 -10.15625 C 41.445312 -11.726562 43.484375 -13.914062 44.984375 -16.71875 C 46.492188 -19.519531 47.25 -22.6875 47.25 -26.21875 Z M 47.25 -26.21875 "/></g></g></g><g fill="#ffffff" fill-opacity="1"><g transform="translate(304.451637, 131.284043)"><g><path d="M 33.828125 -53.65625 C 45.835938 -53.65625 51.84375 -46.445312 51.84375 -32.03125 L 51.84375 -4.796875 C 51.84375 -3.460938 51.390625 -2.328125 50.484375 -1.390625 C 49.585938 -0.460938 48.441406 0 47.046875 0 C 45.710938 0 44.59375 -0.460938 43.6875 -1.390625 C 42.789062 -2.328125 42.34375 -3.460938 42.34375 -4.796875 L 42.34375 -31.9375 C 42.34375 -35.863281 41.441406 -38.992188 39.640625 -41.328125 C 37.835938 -43.671875 34.898438 -44.84375 30.828125 -44.84375 C 28.160156 -44.84375 25.738281 -44.257812 23.5625 -43.09375 C 21.394531 -41.925781 19.691406 -40.359375 18.453125 -38.390625 C 17.222656 -36.421875 16.609375 -34.269531 16.609375 -31.9375 L 16.609375 -4.796875 C 16.609375 -3.460938 16.15625 -2.328125 15.25 -1.390625 C 14.351562 -0.460938 13.207031 0 11.8125 0 C 10.40625 0 9.269531 -0.445312 8.40625 -1.34375 C 7.539062 -2.25 7.109375 -3.398438 7.109375 -4.796875 L 7.109375 -47.640625 C 7.109375 -48.972656 7.554688 -50.109375 8.453125 -51.046875 C 9.359375 -51.984375 10.476562 -52.453125 11.8125 -52.453125 C 13.207031 -52.453125 14.351562 -51.984375 15.25 -51.046875 C 16.15625 -50.109375 16.609375 -48.972656 16.609375 -47.640625 L 16.609375 -44.140625 C 18.347656 -46.804688 20.769531 -49.054688 23.875 -50.890625 C 26.976562 -52.734375 30.296875 -53.65625 33.828125 -53.65625 Z M 33.828125 -53.65625 "/></g></g></g><g fill="#ffffff" fill-opacity="1"><g transform="translate(362.901015, 131.284043)"><g><path d="M 53.15625 -28.21875 C 53.082031 -27.019531 52.578125 -26.003906 51.640625 -25.171875 C 50.710938 -24.335938 49.613281 -23.921875 48.34375 -23.921875 L 13.109375 -23.921875 C 13.578125 -19.046875 15.425781 -15.140625 18.65625 -12.203125 C 21.894531 -9.273438 25.851562 -7.8125 30.53125 -7.8125 C 33.726562 -7.8125 36.328125 -8.273438 38.328125 -9.203125 C 40.335938 -10.140625 42.109375 -11.34375 43.640625 -12.8125 C 44.640625 -13.414062 45.609375 -13.71875 46.546875 -13.71875 C 47.679688 -13.71875 48.628906 -13.316406 49.390625 -12.515625 C 50.160156 -11.710938 50.546875 -10.773438 50.546875 -9.703125 C 50.546875 -8.304688 49.878906 -7.039062 48.546875 -5.90625 C 46.609375 -3.96875 44.035156 -2.332031 40.828125 -1 C 37.628906 0.332031 34.363281 1 31.03125 1 C 25.625 1 20.867188 -0.132812 16.765625 -2.40625 C 12.660156 -4.675781 9.488281 -7.84375 7.25 -11.90625 C 5.019531 -15.976562 3.90625 -20.582031 3.90625 -25.71875 C 3.90625 -31.320312 5.054688 -36.242188 7.359375 -40.484375 C 9.660156 -44.722656 12.695312 -47.976562 16.46875 -50.25 C 20.238281 -52.519531 24.289062 -53.65625 28.625 -53.65625 C 32.894531 -53.65625 36.898438 -52.550781 40.640625 -50.34375 C 44.378906 -48.144531 47.378906 -45.109375 49.640625 -41.234375 C 51.910156 -37.367188 53.082031 -33.03125 53.15625 -28.21875 Z M 28.625 -44.84375 C 24.882812 -44.84375 21.644531 -43.789062 18.90625 -41.6875 C 16.175781 -39.582031 14.378906 -36.332031 13.515625 -31.9375 L 43.046875 -31.9375 L 43.046875 -32.734375 C 42.710938 -36.265625 41.125 -39.164062 38.28125 -41.4375 C 35.445312 -43.707031 32.226562 -44.84375 28.625 -44.84375 Z M 28.625 -44.84375 "/></g></g></g><g fill="#ffffff" fill-opacity="1"><g transform="translate(419.448785, 131.284043)"><g><path d="M 45.25 -7.40625 C 45.976562 -6.601562 46.34375 -5.671875 46.34375 -4.609375 C 46.34375 -3.273438 45.84375 -2.125 44.84375 -1.15625 C 43.84375 -0.1875 42.738281 0.296875 41.53125 0.296875 C 40 0.296875 38.703125 -0.398438 37.640625 -1.796875 L 24.21875 -18.71875 L 11.015625 -1.796875 C 10.546875 -1.128906 9.976562 -0.628906 9.3125 -0.296875 C 8.644531 0.0351562 7.941406 0.203125 7.203125 0.203125 C 6.066406 0.203125 5.015625 -0.210938 4.046875 -1.046875 C 3.085938 -1.878906 2.609375 -2.863281 2.609375 -4 C 2.609375 -5.207031 2.972656 -6.207031 3.703125 -7 L 18.71875 -25.71875 L 3.296875 -45.140625 C 2.628906 -46.003906 2.296875 -46.9375 2.296875 -47.9375 C 2.296875 -49.28125 2.78125 -50.414062 3.75 -51.34375 C 4.71875 -52.28125 5.835938 -52.75 7.109375 -52.75 C 8.710938 -52.75 10.015625 -52.082031 11.015625 -50.75 L 24.71875 -33.4375 L 37.640625 -50.640625 C 38.640625 -52.046875 39.90625 -52.75 41.4375 -52.75 C 42.707031 -52.75 43.773438 -52.332031 44.640625 -51.5 C 45.503906 -50.664062 45.9375 -49.679688 45.9375 -48.546875 C 45.9375 -47.273438 45.570312 -46.238281 44.84375 -45.4375 L 30.03125 -26.71875 Z M 45.25 -7.40625 "/></g></g></g><g fill="#ffffff" fill-opacity="1"><g transform="translate(467.58944, 131.284043)"><g><path d="M 49.640625 -53.15625 C 51.046875 -53.15625 52.195312 -52.703125 53.09375 -51.796875 C 54 -50.898438 54.453125 -49.71875 54.453125 -48.25 L 54.453125 -4.796875 C 54.453125 -3.460938 54 -2.328125 53.09375 -1.390625 C 52.195312 -0.460938 51.046875 0 49.640625 0 C 48.242188 0 47.109375 -0.445312 46.234375 -1.34375 C 45.367188 -2.25 44.9375 -3.398438 44.9375 -4.796875 L 44.9375 -7.40625 C 43.207031 -5.070312 40.835938 -3.085938 37.828125 -1.453125 C 34.828125 0.179688 31.59375 1 28.125 1 C 23.582031 1 19.457031 -0.164062 15.75 -2.5 C 12.050781 -4.832031 9.148438 -8.082031 7.046875 -12.25 C 4.953125 -16.425781 3.90625 -21.117188 3.90625 -26.328125 C 3.90625 -31.523438 4.953125 -36.207031 7.046875 -40.375 C 9.148438 -44.550781 12.035156 -47.804688 15.703125 -50.140625 C 19.378906 -52.484375 23.421875 -53.65625 27.828125 -53.65625 C 31.359375 -53.65625 34.640625 -52.921875 37.671875 -51.453125 C 40.710938 -49.984375 43.132812 -48.113281 44.9375 -45.84375 L 44.9375 -48.25 C 44.9375 -49.644531 45.367188 -50.8125 46.234375 -51.75 C 47.109375 -52.6875 48.242188 -53.15625 49.640625 -53.15625 Z M 29.234375 -7.8125 C 32.367188 -7.8125 35.148438 -8.609375 37.578125 -10.203125 C 40.015625 -11.804688 41.914062 -14.007812 43.28125 -16.8125 C 44.65625 -19.613281 45.34375 -22.785156 45.34375 -26.328125 C 45.34375 -29.796875 44.65625 -32.929688 43.28125 -35.734375 C 41.914062 -38.535156 40.015625 -40.753906 37.578125 -42.390625 C 35.148438 -44.023438 32.367188 -44.84375 29.234375 -44.84375 C 26.085938 -44.84375 23.296875 -44.039062 20.859375 -42.4375 C 18.429688 -40.832031 16.53125 -38.628906 15.15625 -35.828125 C 13.789062 -33.023438 13.109375 -29.859375 13.109375 -26.328125 C 13.109375 -22.785156 13.789062 -19.613281 15.15625 -16.8125 C 16.53125 -14.007812 18.429688 -11.804688 20.859375 -10.203125 C 23.296875 -8.609375 26.085938 -7.8125 29.234375 -7.8125 Z M 16.609375 -58.65625 C 15.273438 -58.65625 14.222656 -59.15625 13.453125 -60.15625 C 12.679688 -61.15625 12.332031 -62.59375 12.40625 -64.46875 C 12.601562 -66.726562 13.671875 -68.625 15.609375 -70.15625 C 17.546875 -71.695312 20.148438 -72.46875 23.421875 -72.46875 C 24.878906 -72.46875 26.273438 -72.148438 27.609375 -71.515625 C 28.953125 -70.878906 30.554688 -69.960938 32.421875 -68.765625 C 33.617188 -67.960938 34.617188 -67.34375 35.421875 -66.90625 C 36.222656 -66.476562 36.957031 -66.265625 37.625 -66.265625 C 38.425781 -66.265625 39.0625 -66.515625 39.53125 -67.015625 C 40 -67.515625 40.195312 -68.195312 40.125 -69.0625 C 40.0625 -69.269531 40.03125 -69.601562 40.03125 -70.0625 C 40.03125 -70.9375 40.328125 -71.640625 40.921875 -72.171875 C 41.523438 -72.703125 42.257812 -72.96875 43.125 -72.96875 C 44.46875 -72.96875 45.519531 -72.46875 46.28125 -71.46875 C 47.050781 -70.46875 47.40625 -69.097656 47.34375 -67.359375 C 47.132812 -65.160156 46.179688 -63.242188 44.484375 -61.609375 C 42.785156 -59.972656 40.332031 -59.15625 37.125 -59.15625 C 35.925781 -59.15625 34.675781 -59.4375 33.375 -60 C 32.070312 -60.570312 30.453125 -61.425781 28.515625 -62.5625 C 27.046875 -63.425781 25.828125 -64.09375 24.859375 -64.5625 C 23.898438 -65.03125 23.050781 -65.265625 22.3125 -65.265625 C 21.507812 -65.265625 20.859375 -65.03125 20.359375 -64.5625 C 19.859375 -64.09375 19.609375 -63.394531 19.609375 -62.46875 C 19.671875 -62.257812 19.703125 -61.988281 19.703125 -61.65625 C 19.703125 -60.726562 19.398438 -59.992188 18.796875 -59.453125 C 18.203125 -58.921875 17.472656 -58.65625 16.609375 -58.65625 Z M 16.609375 -58.65625 "/></g></g></g><g fill="#ffffff" fill-opacity="1"><g transform="translate(528.540927, 131.284043)"><g><path d="M 56.75 -26.21875 C 56.75 -21.019531 55.582031 -16.347656 53.25 -12.203125 C 50.914062 -8.066406 47.726562 -4.832031 43.6875 -2.5 C 39.65625 -0.164062 35.203125 1 30.328125 1 C 25.453125 1 20.992188 -0.164062 16.953125 -2.5 C 12.921875 -4.832031 9.738281 -8.066406 7.40625 -12.203125 C 5.070312 -16.347656 3.90625 -21.019531 3.90625 -26.21875 C 3.90625 -31.425781 5.070312 -36.128906 7.40625 -40.328125 C 9.738281 -44.535156 12.921875 -47.804688 16.953125 -50.140625 C 20.992188 -52.484375 25.453125 -53.65625 30.328125 -53.65625 C 35.203125 -53.65625 39.65625 -52.484375 43.6875 -50.140625 C 47.726562 -47.804688 50.914062 -44.535156 53.25 -40.328125 C 55.582031 -36.128906 56.75 -31.425781 56.75 -26.21875 Z M 47.25 -26.21875 C 47.25 -29.820312 46.492188 -33.039062 44.984375 -35.875 C 43.484375 -38.71875 41.445312 -40.921875 38.875 -42.484375 C 36.3125 -44.054688 33.460938 -44.84375 30.328125 -44.84375 C 27.191406 -44.84375 24.335938 -44.054688 21.765625 -42.484375 C 19.203125 -40.921875 17.164062 -38.71875 15.65625 -35.875 C 14.15625 -33.039062 13.40625 -29.820312 13.40625 -26.21875 C 13.40625 -22.6875 14.15625 -19.519531 15.65625 -16.71875 C 17.164062 -13.914062 19.203125 -11.726562 21.765625 -10.15625 C 24.335938 -8.59375 27.191406 -7.8125 30.328125 -7.8125 C 33.460938 -7.8125 36.3125 -8.59375 38.875 -10.15625 C 41.445312 -11.726562 43.484375 -13.914062 44.984375 -16.71875 C 46.492188 -19.519531 47.25 -22.6875 47.25 -26.21875 Z M 47.25 -26.21875 "/></g></g></g><g fill="#ffffff" fill-opacity="1"><g transform="translate(588.695177, 131.284043)"><g/></g></g><g fill="#ffffff" fill-opacity="1"><g transform="translate(194.328125, 224.778806)"><g><path d="M 16.109375 -4.796875 C 16.109375 -3.460938 15.65625 -2.328125 14.75 -1.390625 C 13.851562 -0.460938 12.707031 0 11.3125 0 C 9.976562 0 8.859375 -0.460938 7.953125 -1.390625 C 7.054688 -2.328125 6.609375 -3.460938 6.609375 -4.796875 L 6.609375 -48.140625 C 6.609375 -49.472656 7.054688 -50.609375 7.953125 -51.546875 C 8.859375 -52.484375 9.976562 -52.953125 11.3125 -52.953125 C 12.707031 -52.953125 13.851562 -52.484375 14.75 -51.546875 C 15.65625 -50.609375 16.109375 -49.472656 16.109375 -48.140625 Z M 11.3125 -59.5625 C 9.375 -59.5625 7.988281 -59.910156 7.15625 -60.609375 C 6.320312 -61.304688 5.90625 -62.421875 5.90625 -63.953125 L 5.90625 -65.5625 C 5.90625 -67.164062 6.351562 -68.300781 7.25 -68.96875 C 8.15625 -69.632812 9.539062 -69.96875 11.40625 -69.96875 C 13.28125 -69.96875 14.632812 -69.613281 15.46875 -68.90625 C 16.300781 -68.207031 16.71875 -67.09375 16.71875 -65.5625 L 16.71875 -63.953125 C 16.71875 -62.359375 16.28125 -61.226562 15.40625 -60.5625 C 14.539062 -59.894531 13.175781 -59.5625 11.3125 -59.5625 Z M 11.3125 -59.5625 "/></g></g></g><g fill="#ffffff" fill-opacity="1"><g transform="translate(219.149261, 224.778806)"><g><path d="M 33.828125 -53.65625 C 45.835938 -53.65625 51.84375 -46.445312 51.84375 -32.03125 L 51.84375 -4.796875 C 51.84375 -3.460938 51.390625 -2.328125 50.484375 -1.390625 C 49.585938 -0.460938 48.441406 0 47.046875 0 C 45.710938 0 44.59375 -0.460938 43.6875 -1.390625 C 42.789062 -2.328125 42.34375 -3.460938 42.34375 -4.796875 L 42.34375 -31.9375 C 42.34375 -35.863281 41.441406 -38.992188 39.640625 -41.328125 C 37.835938 -43.671875 34.898438 -44.84375 30.828125 -44.84375 C 28.160156 -44.84375 25.738281 -44.257812 23.5625 -43.09375 C 21.394531 -41.925781 19.691406 -40.359375 18.453125 -38.390625 C 17.222656 -36.421875 16.609375 -34.269531 16.609375 -31.9375 L 16.609375 -4.796875 C 16.609375 -3.460938 16.15625 -2.328125 15.25 -1.390625 C 14.351562 -0.460938 13.207031 0 11.8125 0 C 10.40625 0 9.269531 -0.445312 8.40625 -1.34375 C 7.539062 -2.25 7.109375 -3.398438 7.109375 -4.796875 L 7.109375 -47.640625 C 7.109375 -48.972656 7.554688 -50.109375 8.453125 -51.046875 C 9.359375 -51.984375 10.476562 -52.453125 11.8125 -52.453125 C 13.207031 -52.453125 14.351562 -51.984375 15.25 -51.046875 C 16.15625 -50.109375 16.609375 -48.972656 16.609375 -47.640625 L 16.609375 -44.140625 C 18.347656 -46.804688 20.769531 -49.054688 23.875 -50.890625 C 26.976562 -52.734375 30.296875 -53.65625 33.828125 -53.65625 Z M 33.828125 -53.65625 "/></g></g></g><g fill="#ffffff" fill-opacity="1"><g transform="translate(280.201037, 224.778806)"><g><path d="M 29.53125 -65.46875 C 27.320312 -65.46875 25.703125 -64.796875 24.671875 -63.453125 C 23.640625 -62.117188 23.125 -60.488281 23.125 -58.5625 L 23.125 -51.546875 L 33.03125 -51.546875 C 34.363281 -51.546875 35.445312 -51.128906 36.28125 -50.296875 C 37.113281 -49.460938 37.53125 -48.410156 37.53125 -47.140625 C 37.53125 -45.878906 37.113281 -44.847656 36.28125 -44.046875 C 35.445312 -43.242188 34.363281 -42.84375 33.03125 -42.84375 L 23.125 -42.84375 L 23.125 -4.796875 C 23.125 -3.460938 22.671875 -2.328125 21.765625 -1.390625 C 20.867188 -0.460938 19.71875 0 18.3125 0 C 16.976562 0 15.859375 -0.460938 14.953125 -1.390625 C 14.054688 -2.328125 13.609375 -3.460938 13.609375 -4.796875 L 13.609375 -42.84375 L 7.40625 -42.84375 C 6.132812 -42.84375 5.066406 -43.242188 4.203125 -44.046875 C 3.335938 -44.847656 2.90625 -45.878906 2.90625 -47.140625 C 2.90625 -48.410156 3.335938 -49.460938 4.203125 -50.296875 C 5.066406 -51.128906 6.132812 -51.546875 7.40625 -51.546875 L 13.609375 -51.546875 L 13.609375 -58.5625 C 13.609375 -63.226562 15.109375 -66.945312 18.109375 -69.71875 C 21.117188 -72.488281 25.359375 -73.875 30.828125 -73.875 C 33.097656 -73.875 35.097656 -73.453125 36.828125 -72.609375 C 38.566406 -71.773438 39.4375 -70.523438 39.4375 -68.859375 C 39.4375 -67.597656 39.050781 -66.546875 38.28125 -65.703125 C 37.519531 -64.867188 36.601562 -64.453125 35.53125 -64.453125 C 35.269531 -64.453125 34.535156 -64.585938 33.328125 -64.859375 C 31.859375 -65.265625 30.59375 -65.46875 29.53125 -65.46875 Z M 29.53125 -65.46875 "/></g></g></g><g fill="#ffffff" fill-opacity="1"><g transform="translate(321.335972, 224.778806)"><g><path d="M 49.640625 -53.15625 C 51.046875 -53.15625 52.195312 -52.703125 53.09375 -51.796875 C 54 -50.898438 54.453125 -49.71875 54.453125 -48.25 L 54.453125 -4.796875 C 54.453125 -3.460938 54 -2.328125 53.09375 -1.390625 C 52.195312 -0.460938 51.046875 0 49.640625 0 C 48.242188 0 47.109375 -0.445312 46.234375 -1.34375 C 45.367188 -2.25 44.9375 -3.398438 44.9375 -4.796875 L 44.9375 -7.40625 C 43.207031 -5.070312 40.835938 -3.085938 37.828125 -1.453125 C 34.828125 0.179688 31.59375 1 28.125 1 C 23.582031 1 19.457031 -0.164062 15.75 -2.5 C 12.050781 -4.832031 9.148438 -8.082031 7.046875 -12.25 C 4.953125 -16.425781 3.90625 -21.117188 3.90625 -26.328125 C 3.90625 -31.523438 4.953125 -36.207031 7.046875 -40.375 C 9.148438 -44.550781 12.035156 -47.804688 15.703125 -50.140625 C 19.378906 -52.484375 23.421875 -53.65625 27.828125 -53.65625 C 31.359375 -53.65625 34.640625 -52.921875 37.671875 -51.453125 C 40.710938 -49.984375 43.132812 -48.113281 44.9375 -45.84375 L 44.9375 -48.25 C 44.9375 -49.644531 45.367188 -50.8125 46.234375 -51.75 C 47.109375 -52.6875 48.242188 -53.15625 49.640625 -53.15625 Z M 29.234375 -7.8125 C 32.367188 -7.8125 35.148438 -8.609375 37.578125 -10.203125 C 40.015625 -11.804688 41.914062 -14.007812 43.28125 -16.8125 C 44.65625 -19.613281 45.34375 -22.785156 45.34375 -26.328125 C 45.34375 -29.796875 44.65625 -32.929688 43.28125 -35.734375 C 41.914062 -38.535156 40.015625 -40.753906 37.578125 -42.390625 C 35.148438 -44.023438 32.367188 -44.84375 29.234375 -44.84375 C 26.085938 -44.84375 23.296875 -44.039062 20.859375 -42.4375 C 18.429688 -40.832031 16.53125 -38.628906 15.15625 -35.828125 C 13.789062 -33.023438 13.109375 -29.859375 13.109375 -26.328125 C 13.109375 -22.785156 13.789062 -19.613281 15.15625 -16.8125 C 16.53125 -14.007812 18.429688 -11.804688 20.859375 -10.203125 C 23.296875 -8.609375 26.085938 -7.8125 29.234375 -7.8125 Z M 41.75 -63.65625 C 42.144531 -63.125 42.410156 -62.691406 42.546875 -62.359375 C 42.679688 -62.023438 42.75 -61.625 42.75 -61.15625 C 42.75 -60.5625 42.515625 -60.0625 42.046875 -59.65625 C 41.578125 -59.257812 40.972656 -59.0625 40.234375 -59.0625 C 39.367188 -59.0625 38.734375 -59.175781 38.328125 -59.40625 C 37.929688 -59.644531 37.269531 -60.160156 36.34375 -60.953125 L 29.9375 -66.359375 L 23.421875 -60.953125 C 23.222656 -60.753906 22.875 -60.453125 22.375 -60.046875 C 21.875 -59.648438 21.40625 -59.367188 20.96875 -59.203125 C 20.539062 -59.035156 20.023438 -58.953125 19.421875 -58.953125 C 18.753906 -58.953125 18.1875 -59.171875 17.71875 -59.609375 C 17.25 -60.046875 17.015625 -60.53125 17.015625 -61.0625 C 17.015625 -61.59375 17.082031 -62.023438 17.21875 -62.359375 C 17.351562 -62.691406 17.617188 -63.09375 18.015625 -63.5625 L 23.921875 -70.5625 C 25.128906 -72.164062 26.800781 -72.96875 28.9375 -72.96875 L 31.640625 -72.96875 C 32.703125 -72.96875 33.566406 -72.800781 34.234375 -72.46875 C 34.898438 -72.132812 35.535156 -71.5 36.140625 -70.5625 Z M 41.75 -63.65625 "/></g></g></g><g fill="#ffffff" fill-opacity="1"><g transform="translate(384.889858, 224.778806)"><g><path d="M 33.828125 -53.65625 C 45.835938 -53.65625 51.84375 -46.445312 51.84375 -32.03125 L 51.84375 -4.796875 C 51.84375 -3.460938 51.390625 -2.328125 50.484375 -1.390625 C 49.585938 -0.460938 48.441406 0 47.046875 0 C 45.710938 0 44.59375 -0.460938 43.6875 -1.390625 C 42.789062 -2.328125 42.34375 -3.460938 42.34375 -4.796875 L 42.34375 -31.9375 C 42.34375 -35.863281 41.441406 -38.992188 39.640625 -41.328125 C 37.835938 -43.671875 34.898438 -44.84375 30.828125 -44.84375 C 28.160156 -44.84375 25.738281 -44.257812 23.5625 -43.09375 C 21.394531 -41.925781 19.691406 -40.359375 18.453125 -38.390625 C 17.222656 -36.421875 16.609375 -34.269531 16.609375 -31.9375 L 16.609375 -4.796875 C 16.609375 -3.460938 16.15625 -2.328125 15.25 -1.390625 C 14.351562 -0.460938 13.207031 0 11.8125 0 C 10.40625 0 9.269531 -0.445312 8.40625 -1.34375 C 7.539062 -2.25 7.109375 -3.398438 7.109375 -4.796875 L 7.109375 -47.640625 C 7.109375 -48.972656 7.554688 -50.109375 8.453125 -51.046875 C 9.359375 -51.984375 10.476562 -52.453125 11.8125 -52.453125 C 13.207031 -52.453125 14.351562 -51.984375 15.25 -51.046875 C 16.15625 -50.109375 16.609375 -48.972656 16.609375 -47.640625 L 16.609375 -44.140625 C 18.347656 -46.804688 20.769531 -49.054688 23.875 -50.890625 C 26.976562 -52.734375 30.296875 -53.65625 33.828125 -53.65625 Z M 33.828125 -53.65625 "/></g></g></g><g fill="#ffffff" fill-opacity="1"><g transform="translate(445.941624, 224.778806)"><g><path d="M 29.921875 -53.65625 C 35.191406 -53.65625 39.578125 -52.816406 43.078125 -51.140625 C 46.585938 -49.472656 48.34375 -47.335938 48.34375 -44.734375 C 48.34375 -43.609375 47.972656 -42.59375 47.234375 -41.6875 C 46.503906 -40.789062 45.570312 -40.34375 44.4375 -40.34375 C 43.570312 -40.34375 42.890625 -40.472656 42.390625 -40.734375 C 41.890625 -41.003906 41.207031 -41.441406 40.34375 -42.046875 C 39.9375 -42.441406 39.300781 -42.90625 38.4375 -43.4375 C 37.632812 -43.84375 36.5 -44.175781 35.03125 -44.4375 C 33.5625 -44.707031 32.226562 -44.84375 31.03125 -44.84375 C 27.5625 -44.84375 24.488281 -44.039062 21.8125 -42.4375 C 19.144531 -40.832031 17.078125 -38.613281 15.609375 -35.78125 C 14.140625 -32.945312 13.40625 -29.796875 13.40625 -26.328125 C 13.40625 -22.785156 14.125 -19.613281 15.5625 -16.8125 C 17 -14.007812 19.019531 -11.804688 21.625 -10.203125 C 24.226562 -8.609375 27.195312 -7.8125 30.53125 -7.8125 C 34 -7.8125 36.800781 -8.34375 38.9375 -9.40625 C 39.40625 -9.675781 40.039062 -10.109375 40.84375 -10.703125 C 41.507812 -11.242188 42.09375 -11.644531 42.59375 -11.90625 C 43.09375 -12.175781 43.707031 -12.3125 44.4375 -12.3125 C 45.769531 -12.3125 46.820312 -11.894531 47.59375 -11.0625 C 48.363281 -10.226562 48.75 -9.144531 48.75 -7.8125 C 48.75 -6.40625 47.863281 -5.015625 46.09375 -3.640625 C 44.320312 -2.273438 41.953125 -1.160156 38.984375 -0.296875 C 36.015625 0.566406 32.828125 1 29.421875 1 C 24.359375 1 19.890625 -0.179688 16.015625 -2.546875 C 12.140625 -4.921875 9.148438 -8.191406 7.046875 -12.359375 C 4.953125 -16.535156 3.90625 -21.191406 3.90625 -26.328125 C 3.90625 -31.460938 5.003906 -36.113281 7.203125 -40.28125 C 9.410156 -44.457031 12.484375 -47.726562 16.421875 -50.09375 C 20.359375 -52.46875 24.859375 -53.65625 29.921875 -53.65625 Z M 29.921875 -53.65625 "/></g></g></g><g fill="#ffffff" fill-opacity="1"><g transform="translate(499.487053, 224.778806)"><g><path d="M 16.109375 -4.796875 C 16.109375 -3.460938 15.65625 -2.328125 14.75 -1.390625 C 13.851562 -0.460938 12.707031 0 11.3125 0 C 9.976562 0 8.859375 -0.460938 7.953125 -1.390625 C 7.054688 -2.328125 6.609375 -3.460938 6.609375 -4.796875 L 6.609375 -48.140625 C 6.609375 -49.472656 7.054688 -50.609375 7.953125 -51.546875 C 8.859375 -52.484375 9.976562 -52.953125 11.3125 -52.953125 C 12.707031 -52.953125 13.851562 -52.484375 14.75 -51.546875 C 15.65625 -50.609375 16.109375 -49.472656 16.109375 -48.140625 Z M 11.3125 -59.5625 C 9.375 -59.5625 7.988281 -59.910156 7.15625 -60.609375 C 6.320312 -61.304688 5.90625 -62.421875 5.90625 -63.953125 L 5.90625 -65.5625 C 5.90625 -67.164062 6.351562 -68.300781 7.25 -68.96875 C 8.15625 -69.632812 9.539062 -69.96875 11.40625 -69.96875 C 13.28125 -69.96875 14.632812 -69.613281 15.46875 -68.90625 C 16.300781 -68.207031 16.71875 -67.09375 16.71875 -65.5625 L 16.71875 -63.953125 C 16.71875 -62.359375 16.28125 -61.226562 15.40625 -60.5625 C 14.539062 -59.894531 13.175781 -59.5625 11.3125 -59.5625 Z M 11.3125 -59.5625 "/></g></g></g><g fill="#ffffff" fill-opacity="1"><g transform="translate(524.308188, 224.778806)"><g><path d="M 49.640625 -53.15625 C 51.046875 -53.15625 52.195312 -52.703125 53.09375 -51.796875 C 54 -50.898438 54.453125 -49.71875 54.453125 -48.25 L 54.453125 -4.796875 C 54.453125 -3.460938 54 -2.328125 53.09375 -1.390625 C 52.195312 -0.460938 51.046875 0 49.640625 0 C 48.242188 0 47.109375 -0.445312 46.234375 -1.34375 C 45.367188 -2.25 44.9375 -3.398438 44.9375 -4.796875 L 44.9375 -7.40625 C 43.207031 -5.070312 40.835938 -3.085938 37.828125 -1.453125 C 34.828125 0.179688 31.59375 1 28.125 1 C 23.582031 1 19.457031 -0.164062 15.75 -2.5 C 12.050781 -4.832031 9.148438 -8.082031 7.046875 -12.25 C 4.953125 -16.425781 3.90625 -21.117188 3.90625 -26.328125 C 3.90625 -31.523438 4.953125 -36.207031 7.046875 -40.375 C 9.148438 -44.550781 12.035156 -47.804688 15.703125 -50.140625 C 19.378906 -52.484375 23.421875 -53.65625 27.828125 -53.65625 C 31.359375 -53.65625 34.640625 -52.921875 37.671875 -51.453125 C 40.710938 -49.984375 43.132812 -48.113281 44.9375 -45.84375 L 44.9375 -48.25 C 44.9375 -49.644531 45.367188 -50.8125 46.234375 -51.75 C 47.109375 -52.6875 48.242188 -53.15625 49.640625 -53.15625 Z M 29.234375 -7.8125 C 32.367188 -7.8125 35.148438 -8.609375 37.578125 -10.203125 C 40.015625 -11.804688 41.914062 -14.007812 43.28125 -16.8125 C 44.65625 -19.613281 45.34375 -22.785156 45.34375 -26.328125 C 45.34375 -29.796875 44.65625 -32.929688 43.28125 -35.734375 C 41.914062 -38.535156 40.015625 -40.753906 37.578125 -42.390625 C 35.148438 -44.023438 32.367188 -44.84375 29.234375 -44.84375 C 26.085938 -44.84375 23.296875 -44.039062 20.859375 -42.4375 C 18.429688 -40.832031 16.53125 -38.628906 15.15625 -35.828125 C 13.789062 -33.023438 13.109375 -29.859375 13.109375 -26.328125 C 13.109375 -22.785156 13.789062 -19.613281 15.15625 -16.8125 C 16.53125 -14.007812 18.429688 -11.804688 20.859375 -10.203125 C 23.296875 -8.609375 26.085938 -7.8125 29.234375 -7.8125 Z M 29.234375 -7.8125 "/></g></g></g></svg>